<svg width="41" height="50" viewBox="0 0 41 50" fill="none" xmlns="http://www.w3.org/2000/svg">
<path d="M19.2295 26.1945C21.1316 26.1945 22.6736 25.038 22.6736 23.6114C22.6736 22.1848 21.1316 21.0283 19.2295 21.0283C17.3273 21.0283 15.7853 22.1848 15.7853 23.6114C15.7853 25.038 17.3273 26.1945 19.2295 26.1945Z" fill="black"/>
<path fill-rule="evenodd" clip-rule="evenodd" d="M8.95452 20.8586C6.25352 22.8542 5.17898 24.8535 5.51585 26.4075C5.85271 27.9614 7.65869 29.3363 10.9436 30.0344C14.1418 30.714 18.407 30.6613 22.9637 29.6735C27.5204 28.6858 31.4245 26.9675 34.0542 25.0245C36.7552 23.0289 37.8297 21.0296 37.4929 19.4756C37.156 17.9216 35.35 16.5468 32.0651 15.8487C28.8669 15.1691 24.6017 15.2218 20.045 16.2095C15.4884 17.1973 11.5842 18.9156 8.95452 20.8586ZM7.93117 19.4735C10.7985 17.355 14.9419 15.5537 19.6802 14.5265C24.4185 13.4994 28.9358 13.4232 32.423 14.1642C35.8236 14.8868 38.606 16.482 39.1759 19.1108C39.7457 21.7395 37.8736 24.3437 35.0776 26.4096C32.2102 28.5281 28.0668 30.3294 23.3285 31.3565C18.5902 32.3837 14.0729 32.4599 10.5857 31.7188C7.18512 30.9962 4.4027 29.4011 3.83285 26.7723C3.26299 24.1435 5.1351 21.5394 7.93117 19.4735Z" fill="black"/>
<path fill-rule="evenodd" clip-rule="evenodd" d="M15.5971 9.01545C12.4097 6.25096 9.95519 5.4522 8.57816 6.24723C7.20113 7.04226 6.66562 9.5673 7.46605 13.7099C8.24535 17.7432 10.2285 22.8825 13.2642 28.1404C16.2998 33.3983 19.759 37.6855 22.8623 40.377C26.0497 43.1415 28.5042 43.9402 29.8812 43.1452C31.2583 42.3502 31.7938 39.8251 30.9933 35.6825C30.214 31.6493 28.2308 26.5099 25.1952 21.252C22.1595 15.9941 18.7003 11.707 15.5971 9.01545ZM16.497 7.43331C19.8807 10.3681 23.5299 14.9235 26.6866 20.391C29.8432 25.8585 31.9637 31.2965 32.8135 35.6943C33.6421 39.9827 33.3319 43.7423 31.0024 45.0872C28.673 46.4321 25.262 44.8209 21.9624 41.9591C18.5787 39.0244 14.9295 34.4689 11.7728 29.0014C8.61617 23.534 6.49565 18.0959 5.64593 13.6982C4.81733 9.40976 5.12749 5.65014 7.45695 4.30523C9.7864 2.96032 13.1974 4.57152 16.497 7.43331Z" fill="black"/>
<path fill-rule="evenodd" clip-rule="evenodd" d="M30.8596 15.2503C31.6879 11.404 31.1915 8.97937 29.8528 8.12137C28.5141 7.26337 26.1038 7.82495 22.9549 10.1841C19.8891 12.4809 16.4577 16.2555 13.4302 20.9793C10.4026 25.7031 8.40613 30.3974 7.59966 34.1423C6.77133 37.9886 7.26778 40.4132 8.60648 41.2712C9.94519 42.1292 12.3555 41.5676 15.5044 39.2085C18.5701 36.9117 22.0015 33.1371 25.0291 28.4133C28.0567 23.6895 30.0531 18.9952 30.8596 15.2503ZM32.6407 15.3817C31.7613 19.465 29.6272 24.4304 26.479 29.3425C23.3307 34.2546 19.7105 38.2675 16.3677 40.7719C13.108 43.214 9.75287 44.4674 7.48826 43.0159C5.22364 41.5645 4.96113 37.9926 5.81862 34.0108C6.69797 29.9276 8.83208 24.9622 11.9803 20.0501C15.1286 15.138 18.7488 11.1251 22.0916 8.62068C25.3513 6.17854 28.7064 4.92521 30.971 6.37664C33.2356 7.82807 33.4981 11.4 32.6407 15.3817Z" fill="black"/>
</svg>
