<svg width="313" height="296" viewBox="0 0 313 296" fill="none" xmlns="http://www.w3.org/2000/svg">
<path fill-rule="evenodd" clip-rule="evenodd" d="M172.697 114.029C187.037 113.003 206.699 115.845 210.846 132.194C212.133 138.144 214.667 140.755 218.925 144.646C245.954 179.236 151.652 185.05 146.804 151.32C136.591 155.039 125.474 155.827 115.255 159.586C109.712 161.633 104.687 164.863 99.8707 168.241C80.2321 182.187 60.8715 196.532 41.3029 210.579C48.8754 214.066 63.2726 227.378 57.4061 236.323C56.0395 238.066 54.0109 239.267 52.2164 240.541L51.2702 241.216C49.2345 242.675 45.8077 245.161 43.9127 246.512L43.5633 246.767C43.4262 246.866 43.2717 246.977 43.132 247.077C56.7975 267.054 72.7906 285.486 90.5308 301.943C92.0414 303.347 91.4227 306.487 89.2364 306.853L86.6318 307.235C78.2218 308.459 69.6519 309.562 61.1769 308.897C52.9229 307.999 47.949 300.693 42.3065 295.401C31.0387 283.885 20.5497 271.602 10.996 258.625L10.797 258.351C7.82359 254.288 3.87691 250.136 3.58807 244.89C3.06129 243.313 4.44761 241.053 5.77968 239.977L6.23444 239.321C13.3789 229.047 21.4647 219.139 31.5951 211.699C31.5575 210.59 32.0701 209.425 33.0852 208.69L75.4226 178.055C86.3464 170.538 96.4997 161.705 108.34 155.635C120.447 149.806 134.111 149.577 146.518 144.713C146.781 141.206 154.153 140.312 153.92 140.853C161.698 136.159 165.703 130.573 166.938 125.44C168.173 120.306 166.638 115.625 172.697 114.029ZM277.394 224.016C290.485 204.32 302.964 226.112 308.414 239.246C314.853 257.22 301.518 279.33 292.904 294.825C289.731 299.128 285.558 308.204 279.965 308.862C265.874 308.805 251.764 307.813 237.665 307.517C228.562 305.259 241.335 291.58 250.158 296.576C252.831 297.576 254.166 300.611 256.773 301.584C257.723 301.787 257.788 301.364 258.175 300.418L258.229 300.286C258.918 298.649 259.586 297.004 260.264 295.363C266.004 281.229 272.073 267.22 278.107 253.216C279.396 250.176 277.588 247.671 275.238 245.862C273.438 244.381 265.703 240.765 272.991 242.357C270.185 235.843 273.557 229.232 277.394 224.016ZM244.892 197.055C246.152 196.897 247.771 198.167 247.965 199.398C249.573 209.597 247.782 219.681 245.634 229.658L245.239 231.485C244.447 235.123 243.562 238.834 241.586 242.023C239.57 245.278 236.52 247.732 233.019 249.223C221.787 253.698 207.819 249.272 199.556 240.905C194.27 233.666 198.917 224.571 199.804 216.637C198.965 214.499 198.656 212.026 198.171 209.821L198.112 209.558L196.228 201.334C195.813 199.521 197.135 197.039 199.307 197.288C214.454 199.025 229.764 198.947 244.892 197.055Z" fill="white"/>
<path fill-rule="evenodd" clip-rule="evenodd" d="M297.79 221.439C297.744 221.237 297.987 221.081 298.145 221.234C300.81 223.802 302.691 227.083 304.757 230.125C306.724 233.022 308.865 235.806 310.332 239.003C311.696 241.974 312.575 244.988 312.837 248.254C313.099 251.496 312.759 254.746 312.187 257.939C311.062 264.23 308.657 270.186 306.016 275.972C303.449 281.597 300.548 287.061 297.484 292.426L296.387 294.342C295.047 296.674 293.693 299.002 292.244 301.261C290.44 304.072 288.793 306.974 286.415 309.321C284.725 310.991 281.542 309.321 282.312 306.934C282.646 305.895 282.908 304.916 283.427 303.952C283.819 303.217 284.263 302.503 284.68 301.779C285.514 300.331 286.34 298.877 287.174 297.429C288.924 294.385 290.768 291.397 292.503 288.343C295.512 283.046 298.353 277.65 300.866 272.097L301.161 271.442C303.473 266.3 305.664 260.973 306.679 255.411C307.748 249.55 306.791 244.027 304.709 238.519C303.632 235.67 302.421 232.885 301.162 230.111L300.921 229.581C299.705 226.934 298.416 224.301 297.79 221.439ZM168.391 120.071C168.416 119.967 168.592 119.959 168.608 120.071C169.356 125.047 167.691 130.312 164.978 134.451C163.498 136.712 161.672 138.754 159.521 140.394L159.353 140.521C157.155 142.164 154.186 143.75 151.457 142.685C151.372 142.652 151.292 142.615 151.217 142.573C151.524 143.048 151.807 143.548 152.096 144.048C152.954 145.536 153.724 147.078 154.56 148.58C156.057 151.266 157.84 153.668 160.093 155.771C169.102 164.179 181.753 166.178 193.633 166.082L194.473 166.074C199.691 166.038 206.516 166.304 210.545 162.527C212.71 160.499 213.902 157.615 214.979 154.908C216.037 152.254 216.762 149.515 217.641 146.816C215.805 145.558 214.121 144.021 212.798 142.225C211.419 140.354 210.377 138.249 209.775 136.001L209.687 135.665C209.222 133.873 208.754 131.502 209.503 129.809C209.588 129.614 209.909 129.627 210 129.809C210.403 130.619 210.481 131.533 210.729 132.399C211.018 133.406 211.344 134.408 211.775 135.362C212.606 137.212 213.704 138.97 215.022 140.509C216.11 141.784 217.288 142.955 218.635 143.938C219.429 142.567 221.271 142.383 222.813 142.834C224.88 143.438 226.919 144.213 228.912 145.032L229.31 145.197C231.28 146.014 233.506 146.765 235.35 147.88C236.47 148.414 237.545 148.951 238.555 149.427C243.589 151.792 248.548 154.3 253.485 156.858L254.543 157.407C256.611 158.484 258.661 159.571 260.46 161.073C262.291 162.602 263.713 164.692 265.049 166.651C268.104 171.129 270.982 175.737 274.003 180.24C280.102 189.326 286.201 198.412 292.335 207.476C293.818 209.671 295.491 211.811 296.822 214.099C298.097 216.285 298.062 218.529 297.814 220.969L297.767 221.417C297.29 225.893 296.471 230.191 293.96 234.029C290.007 240.063 283.779 243.821 277.191 246.407C277.996 247.006 278.752 247.653 279.711 248.065C281.187 248.695 282.761 249.021 284.357 249.152C286.059 249.289 287.978 248.863 289.357 250.021C289.91 250.483 289.926 251.595 289.357 252.057C288.031 253.139 286.318 252.829 284.702 252.648L284.605 252.637C283.106 252.471 281.628 252.193 280.219 251.643C279.872 251.506 279.527 251.354 279.193 251.186C279.204 251.215 279.209 251.25 279.204 251.287C278.963 253.128 278.441 254.869 277.891 256.629L277.541 257.744C276.83 260.021 276.114 262.292 275.376 264.564C273.973 268.888 272.444 273.171 270.909 277.449L269.585 281.141C268.224 284.928 266.847 288.71 265.324 292.434C264.384 294.732 263.438 297.03 262.494 299.326C261.572 301.568 260.805 303.989 259.661 306.124C258.72 307.883 256.154 306.624 256.566 304.818C257.106 302.448 258.124 300.096 258.902 297.789C259.693 295.448 260.468 293.105 261.273 290.769C262.672 286.711 264.221 282.708 265.779 278.708L267.322 274.743C268.837 270.858 270.369 266.977 272.006 263.142L272.185 262.722C273.886 258.711 275.643 254.201 278.733 251.093C278.773 251.05 278.829 251.028 278.886 251.023C278.127 250.611 277.416 250.111 276.79 249.521L276.76 249.49C276.513 249.228 275.491 247.939 275.163 247.167C274.735 247.319 274.307 247.466 273.88 247.61C273.134 247.861 272.517 247.68 272.081 247.281L271.251 247.795C270.364 248.336 269.41 248.851 268.43 248.877C267.195 248.909 266.225 248.227 265.565 247.223C264.972 246.325 264.619 245.355 263.868 244.55C263.129 243.76 262.275 243.092 261.401 242.455L260.372 241.706C258.484 240.328 256.654 238.936 255.133 237.116C254.369 236.196 253.345 235.106 252.88 234.002C252.79 233.789 252.733 233.588 252.723 233.393C252.621 234.083 252.517 234.775 252.413 235.464C250.953 245.168 249.775 254.938 249.398 264.751C249.213 269.59 249.131 274.435 249.347 279.278C249.454 281.696 249.63 284.112 249.874 286.523C249.994 287.73 250.12 288.936 250.267 290.138L250.3 290.417C250.343 290.785 250.371 291.142 250.339 291.48C251.515 292.059 252.191 293.524 252.661 294.668C253.019 295.539 252.741 296.386 252.164 296.998C252.854 297.626 253.468 298.364 253.984 299.208C254.088 299.379 253.864 299.513 253.73 299.406C252.883 298.733 251.972 298.179 251.02 297.755C250.52 297.944 249.975 297.995 249.473 297.856C248.927 297.706 248.457 297.343 248.118 296.881C245.416 296.437 242.607 296.98 240.174 298.671C239.669 299.024 239.212 299.422 238.777 299.855C238.702 299.93 238.624 300.026 238.547 300.12L239.077 300.323C239.297 300.407 239.478 300.472 239.546 300.486C240.01 300.58 240.48 300.631 240.95 300.671L241.655 300.729C244.363 300.953 247.062 301.028 249.58 302.161C250.109 302.399 249.924 303.214 249.425 303.35C247.586 303.849 245.762 303.81 243.89 303.677L243.489 303.647C241.749 303.514 239.88 303.522 238.183 303.041C238.59 304.152 238.036 305.603 236.339 305.831C231.242 306.509 226.113 306.189 221.011 305.74C215.858 305.285 210.708 304.855 205.542 304.585C188.83 303.706 172.094 303.875 155.367 304.114L145.915 304.251C138.377 304.357 130.838 304.44 123.3 304.382L119.772 304.349C118.281 304.335 116.789 304.316 115.299 304.273L114.406 304.243C112.631 304.179 110.282 304.446 108.74 303.396C107.468 302.53 107.184 300.943 107.951 299.663C108.173 299.294 108.478 298.965 108.796 298.644C109.448 293.073 109.814 287.474 110.188 281.878C111.487 262.295 110.728 242.813 107.732 223.428C99.6928 225.884 91.7763 228.965 84.063 232.271C79.8909 234.059 75.7402 235.913 71.6376 237.859C67.8932 239.636 64.1327 241.857 60.1317 243.011C59.768 243.334 59.2595 243.487 58.8084 243.344L58.75 243.324H58.7473C58.3357 243.42 57.8787 243.361 57.4296 243.091C57.3388 243.036 57.2479 242.981 57.157 242.924L57.0207 242.837C55.6122 241.95 54.1957 240.857 53.1988 239.521C51.9881 240.643 50.6865 241.672 49.4062 242.714C48.0165 243.847 46.632 244.986 45.2582 246.135C44.713 246.592 44.1117 247.028 43.6306 247.554L43.5607 247.631C43.5495 247.644 43.5388 247.656 43.529 247.669C45.611 249.016 47.4338 251.06 49.0668 252.837C50.8204 254.745 52.5133 256.713 54.1924 258.688L55.8179 260.605C67.3121 274.176 78.9239 288.239 93.8049 298.214C96.1568 299.791 93.9145 303.631 91.5785 302.02C87.1579 298.976 82.9752 295.595 78.9581 292.038C71.9183 285.809 65.584 278.821 59.6533 271.539C56.6519 267.853 53.7387 264.078 50.8842 260.277L49.9155 258.988C48.6244 257.269 47.3403 255.544 46.1108 253.781L45.8536 253.411C44.7752 251.855 43.6284 250.107 42.933 248.316C42.6657 248.586 42.3637 248.812 41.9227 248.984C41.169 249.278 40.2443 248.66 40.0599 247.925C39.6109 246.143 41.161 245.082 42.4225 244.136C43.954 242.992 45.5148 241.889 47.0783 240.79L47.6368 240.395C49.592 239.009 51.5575 237.586 53.6879 236.49C53.752 236.405 53.8295 236.325 53.9177 236.255C54.0193 236.175 54.1182 236.098 54.2198 236.02C51.6754 231.894 48.8851 227.928 45.7714 224.181C43.4301 221.362 40.9445 218.671 38.3146 216.122L37.1332 214.978C35.3461 213.252 33.488 211.502 31.5046 210.002L30.8837 210.706C30.0546 211.643 29.2173 212.574 28.3321 213.455C26.5895 215.186 24.871 216.953 23.1605 218.719C20.3198 221.658 17.5753 224.687 14.8396 227.721L13.472 229.237C10.6229 232.399 7.57072 235.502 4.98089 238.879L4.85155 239.05C3.72089 240.566 2.91602 242.245 3.44142 244.171C3.94837 246.028 5.15366 247.674 6.19255 249.278L6.29585 249.438C10.5374 256.044 15.081 262.482 19.9479 268.642C29.6952 280.98 40.8136 292.674 54.0808 301.253C55.9196 302.442 54.201 305.398 52.3596 304.195C44.6115 299.131 37.4941 293.049 30.946 286.517C24.9352 280.523 19.4882 273.922 14.3834 267.148C11.8951 263.842 9.51109 260.467 7.22594 257.017C5.01029 253.668 2.44719 250.224 0.840903 246.53C-0.000194618 244.588 -0.311025 242.485 0.378528 240.437C1.0109 238.556 2.26151 236.994 3.56253 235.524L3.68464 235.387C6.67537 232.028 9.71956 228.708 12.7905 225.421C15.8721 222.124 19.0953 218.944 22.3854 215.857C24.9699 213.428 27.664 211.287 30.5451 209.304C30.2859 209.12 30.0266 208.944 29.762 208.773C28.9575 208.249 28.7544 207.129 29.46 206.418C31.387 204.472 33.608 202.781 35.6981 201.01C37.6625 199.344 39.6269 197.677 41.5913 196.009C45.5897 192.621 49.588 189.229 53.5863 185.838C60.7678 179.748 67.9092 173.615 75.0667 167.498C78.0512 164.948 81.0635 162.429 84.0681 159.904L89.4063 155.412L92.0172 153.22C93.355 152.1 94.7211 150.992 96.2424 150.138C99.8217 148.128 104.125 147.258 108.069 146.193L108.331 146.121C112.754 144.911 117.202 143.772 121.673 142.757C126.15 141.741 130.645 140.817 135.159 139.98C139.216 139.227 143.37 138.58 147.507 138.484C148.533 138.094 149.822 137.957 150.832 138.374C151.249 138.548 151.685 138.802 152.072 139.122C154.095 138.412 156.092 138.072 157.981 136.87C159.868 135.67 161.539 134.093 162.945 132.356C165.85 128.759 167.371 124.51 168.391 120.071ZM214.899 241.875C213.295 241.763 211.852 242.426 210.419 243.131C211.227 243.481 212.034 243.829 212.841 244.173L218.213 246.466C219.988 247.223 221.867 247.88 223.553 248.812C223.673 248.879 223.77 248.96 223.842 249.053C225.595 247.931 227.45 246.929 229.227 245.862C229.633 245.619 230.042 245.376 230.451 245.133C228.334 245.841 226.164 246.196 223.866 245.531C220.8 244.646 218.138 242.102 214.899 241.875ZM219.293 236.498L219.005 236.303C217.449 235.236 215.593 233.865 213.704 234.823C212.814 235.274 212.085 236.004 211.208 236.49C210.326 236.982 209.356 237.359 208.372 237.586C206.739 237.963 204.868 238.019 203.112 237.655L203.139 240.029C204.467 240.576 205.788 241.138 207.108 241.704C207.965 241.411 208.79 241.059 209.658 240.673L210.243 240.411C211.913 239.66 213.6 239.158 215.447 239.395C218.924 239.842 221.551 242.426 224.876 243.286C228.952 244.345 232.629 241.303 236.481 240.552C237.116 240.427 237.77 240.354 238.421 240.343L238.638 240.341L238.734 240.285C239.562 239.799 240.803 239.334 241.38 238.516C242.008 237.629 242.061 236.143 242.267 235.101C242.289 234.997 242.31 234.89 242.329 234.785C241.965 234.785 241.596 234.804 241.222 234.874C240.046 235.09 238.94 235.507 237.844 235.972C235.773 236.851 233.747 237.853 231.566 238.439C229.43 239.013 227.199 239.286 224.999 238.968C222.853 238.657 221.07 237.69 219.293 236.498ZM219.627 228.155L219.305 227.948C218.456 227.406 217.482 226.844 216.441 227.044C215.511 227.223 214.712 227.963 213.902 228.42C212.125 229.422 210.131 229.97 208.097 230.109C206.405 230.224 204.649 230.018 203.021 229.515L203.078 234.77C203.674 234.959 204.291 235.095 204.94 235.144C206.913 235.29 208.837 234.817 210.492 233.73L211.329 233.174C212.761 232.233 214.105 231.487 216 231.83C217.876 232.172 219.45 233.374 220.985 234.422L221.236 234.591C222.998 235.754 224.784 236.505 226.945 236.522C229.278 236.541 231.584 235.892 233.757 235.093C235.914 234.302 237.964 233.353 240.271 233.062C240.976 232.974 241.837 232.947 242.647 233.086C242.754 232.49 242.855 231.897 242.951 231.301C243.16 230.021 243.339 228.743 243.494 227.463C239.402 226.362 235.623 229.924 231.822 231.023C229.617 231.659 227.217 231.651 225.012 231.036C222.972 230.467 221.368 229.285 219.627 228.155ZM219.638 219.307C218.764 219.139 217.9 219.542 217.157 219.956C215.262 221.007 213.627 222.468 211.481 223.022C208.72 223.732 205.699 223.12 202.957 221.958C202.968 223.58 202.981 225.202 202.995 226.824C203.511 227.02 204.04 227.177 204.58 227.303C206.499 227.741 208.533 227.682 210.422 227.129C212.349 226.565 213.827 225.042 215.759 224.566C217.735 224.078 219.598 225.028 221.19 226.107L221.67 226.434C223.49 227.669 225.255 228.742 227.533 228.952C229.941 229.173 232.033 228.42 234.185 227.421L234.686 227.189C237.41 225.938 240.946 224.514 243.665 225.937C243.879 223.917 244.034 221.897 244.138 219.874C243.764 219.735 243.376 219.633 242.93 219.63C241.864 219.625 240.744 219.962 239.749 220.312C237.577 221.079 235.553 222.222 233.402 223.043C231.363 223.823 229.104 224.23 226.929 223.88C224.913 223.556 223.401 222.503 222.008 221.06L221.806 220.847C221.195 220.197 220.542 219.483 219.638 219.307ZM221.233 211.806C220.226 211.274 218.999 210.779 217.833 210.934C216.722 211.081 215.981 211.835 215.296 212.641L214.925 213.083C213.7 214.532 212.495 215.75 210.607 216.346C208.65 216.961 206.576 216.72 204.756 215.82C204.109 215.499 203.508 215.101 202.904 214.708L202.936 218.97C204.144 219.571 205.373 220.114 206.723 220.443C209.214 221.049 211.331 220.6 213.461 219.227L213.685 219.081C215.289 218.028 216.934 216.773 218.916 216.656C220.85 216.54 222.301 217.612 223.575 218.924L223.724 219.08C225.33 220.774 226.953 221.6 229.342 221.405C231.659 221.215 233.827 220.193 235.949 219.312L236.141 219.232C238.082 218.436 240.319 217.615 242.449 217.92C242.959 217.992 243.62 218.15 244.208 218.425C244.293 216.431 244.333 214.435 244.341 212.436C243.13 211.386 241.246 211.212 239.731 211.643C237.357 212.316 235.414 214.053 233.148 214.996C231.138 215.833 229.043 216.02 226.993 215.229C224.876 214.411 223.216 212.853 221.233 211.806ZM244.208 203.409C240.661 203.532 237.192 205.838 233.805 206.717C230.023 207.699 226.935 206.361 223.566 204.876L223.131 204.684C221.402 203.925 219.544 203.243 217.628 203.553C215.759 203.858 214.108 204.892 212.501 205.828L212.194 206.005C209.267 207.67 206.288 208.811 202.872 208.526C202.891 209.598 202.882 210.667 202.885 211.715C203.446 212.035 203.986 212.399 204.499 212.73L204.684 212.847C206.312 213.865 207.991 214.535 209.933 213.906C211.809 213.297 212.691 211.664 213.979 210.32C215.163 209.085 216.708 208.335 218.44 208.406C220.303 208.481 222.064 209.302 223.604 210.304C225.143 211.306 226.632 212.602 228.433 213.104C232.474 214.227 235.936 209.954 239.758 209.288C241.361 209.008 243.13 209.363 244.341 210.33C244.328 208.027 244.277 205.718 244.208 203.409ZM213.68 202.442C213.18 202.46 212.681 202.482 212.181 202.503C210.331 202.583 208.482 202.674 206.632 202.778C205.352 202.848 203.778 203.241 202.522 202.851C202.49 202.979 202.447 203.102 202.391 203.222C202.58 204.168 202.698 205.146 202.77 206.135C203.93 206.26 205.109 206.218 206.253 205.98C208.998 205.411 211.227 203.679 213.68 202.442ZM244.154 201.648C237.4 202.113 230.595 201.953 223.83 202.099L223.018 202.118C222.986 202.118 222.954 202.121 222.922 202.121C223.698 202.422 224.468 202.766 225.235 203.117L226.001 203.468C227.813 204.302 229.657 204.983 231.686 204.836C233.859 204.678 235.906 203.791 237.937 203.075C239.875 202.391 242.107 201.931 244.173 202.231C244.167 202.035 244.162 201.843 244.154 201.648Z" fill="black"/>
<path fill-rule="evenodd" clip-rule="evenodd" d="M233.714 66.0696C233.409 60.2217 233.141 54.1791 232.019 48.4207C231.469 45.5979 230.37 42.9918 228.591 40.7259C226.964 38.6524 224.916 37.0442 222.839 35.4469C218.664 32.2365 214.65 28.6823 209.977 26.1991C205.493 23.8164 200.646 22.3782 195.622 21.7322C185.948 20.4883 175.786 22.5588 167.385 27.5265C159.236 32.3453 152.685 39.8234 148.631 48.3491C146.617 52.5859 145.103 57.0573 144.288 61.6813C143.317 67.1933 143.405 72.7209 143.44 78.2947C143.452 80.168 143.435 82.0403 143.342 83.909C143.189 84.8161 143.106 85.7345 143.107 86.719C141.262 89.1458 140.512 92.3893 141.668 95.3767C143.512 100.144 148.743 102.312 153.493 101.48C153.706 102.719 154.218 103.94 154.856 105.128C155.947 107.16 157.166 109.149 158.46 111.056C161.137 115.002 164.193 118.58 167.838 121.666C175.064 127.784 184.218 131.793 193.711 132.373C202.354 132.901 211.469 130.444 218.517 125.375C222.175 122.744 225.341 119.52 227.693 115.658C230.441 111.148 231.932 105.956 232.705 100.765C234.404 89.3698 234.313 77.5493 233.714 66.0696Z" fill="white"/>
<path fill-rule="evenodd" clip-rule="evenodd" d="M165.563 5.6363C165.236 1.9559 168.629 -0.81321 171.777 0.217525C172.354 0.289412 172.916 0.471667 173.418 0.778189C174.867 1.66301 175.184 3.09006 174.805 4.32363C175.485 4.83699 176.021 5.53288 176.291 6.37227C176.568 7.23705 176.539 8.07591 176.278 8.8068C177.266 9.45913 178.012 10.4434 178.186 11.6628C178.268 12.2419 178.235 12.8162 178.097 13.344C179.592 13.8514 180.813 14.9883 180.794 16.7085C181.662 16.7641 182.532 16.7764 183.417 16.7272C183.543 16.371 183.698 16.0235 183.927 15.7037C184.391 15.0593 185.049 14.6166 185.778 14.3405L185.878 14.3039L185.877 14.1083C185.318 13.4896 185.057 12.7093 185.652 11.8595C185.754 11.7138 185.878 11.5936 186.017 11.4904C186.066 11.1216 186.146 10.7566 186.243 10.3977C185.751 9.71087 185.804 8.57137 186.631 8.23037C186.515 7.56067 186.509 6.86612 186.633 6.16623C187.143 3.29877 189.911 1.3458 192.763 1.45537C193.12 1.469 193.468 1.52271 193.803 1.60823C194.498 1.68092 195.189 1.83618 195.868 2.06707C196.652 2.33378 196.854 2.98851 196.681 3.54196C197.746 4.96553 198.048 6.89953 196.976 8.63764C196.935 8.70365 196.89 8.76645 196.846 8.82978C197.061 8.99146 197.248 9.20472 197.387 9.47864C197.737 10.1681 197.65 11.043 197.118 11.6184C196.976 11.7718 196.793 11.887 196.592 11.961L196.589 12.0177C196.519 12.941 196.372 13.8667 196.095 14.7387C197.224 15.787 197.974 17.2138 198.107 18.7512C198.527 18.7903 198.948 18.836 199.368 18.8835C199.43 18.4621 199.685 18.0826 200.074 17.7887C200.398 17.5428 200.745 17.3461 201.101 17.1989C201.272 16.3151 201.692 15.4685 202.401 14.7967C202.664 14.5476 202.951 14.3279 203.257 14.139C203.24 13.1809 203.454 12.2237 203.985 11.3172C204.426 10.5634 205.069 10.0166 205.802 9.66864C206.336 8.59435 207.326 7.71781 208.766 7.21968C209.843 6.84763 210.982 7.28979 211.8 7.98508L211.983 8.14539C212.734 8.80787 213.005 10.0251 212.728 10.9642C212.598 11.4054 212.381 11.9209 212.065 12.3397C212.399 13.8087 211.735 15.0342 210.72 15.7229C211.067 16.2168 211.359 16.7646 211.605 17.3496C212.031 18.3611 211.552 19.6206 210.784 20.4175C211.12 20.9535 211.339 21.5789 211.419 22.2069C211.761 22.2269 212.102 22.2879 212.438 22.3833C212.62 21.7654 212.962 21.1911 213.486 20.7221C213.715 20.274 213.988 19.8568 214.293 19.492C214.774 18.9164 215.396 18.5016 216.076 18.3327C216.167 18.1192 216.295 17.9148 216.456 17.728C216.293 15.8552 217.535 13.9215 219.446 13.9199C219.581 13.4832 219.746 13.0513 219.944 12.6278C220.331 11.7969 221.152 11.2993 222.042 11.1358C222.565 9.86212 223.592 8.93588 225.355 8.78141C229.292 8.43668 231.769 13.2106 230.808 16.6382C230.522 17.6564 229.852 18.5933 228.964 19.1687C228.731 19.3191 228.497 19.4284 228.26 19.5187C228.023 19.8499 227.703 20.1441 227.293 20.3838C227.202 20.437 227.109 20.4848 227.013 20.5276C227.022 22.0572 225.966 23.3012 224.655 23.697C224.739 24.6615 224.493 25.6283 223.76 26.3755L223.708 26.4257L223.601 26.5212L223.593 26.5634C223.853 27.2347 223.826 27.9741 223.452 28.5826C223.485 29.1417 223.584 29.6882 223.772 30.2077C224.495 30.7932 225.134 31.4659 225.705 32.196C226.087 31.8507 226.662 31.6949 227.16 31.8836C227.299 31.8365 227.441 31.8061 227.577 31.7924C227.804 31.7694 228.027 31.7702 228.246 31.7863C228.347 31.6396 228.462 31.5001 228.595 31.3694C229.525 30.4504 230.874 30.4693 231.945 31.0402C232.137 30.9004 232.353 30.7769 232.598 30.6735C235.329 29.5225 237.119 32.9872 237.385 35.1468C237.53 36.325 236.516 37.0517 235.475 37.1129C235.264 37.8272 234.585 38.3413 233.827 38.5159C233.961 39.3983 233.376 40.2989 232.579 40.6345C232.223 40.7844 231.879 40.8253 231.555 40.7818L231.571 40.9907C231.633 41.8194 231.214 42.347 230.64 42.5808C230.539 42.9913 230.259 43.289 229.908 43.4416C231.249 46.5479 232.308 49.8024 233.162 53.0121C234.571 58.3109 235.519 63.7062 236.155 69.1503C237.273 78.7209 237.317 88.4882 236.197 98.0628C235.628 102.935 234.681 107.697 232.745 112.222C231.13 115.997 228.884 119.272 226.298 122.442C221.162 128.737 213.81 133.374 205.707 134.526C201.454 135.131 197.092 134.934 192.941 133.776C188.808 132.622 184.402 130.644 181.798 127.13C181.093 126.179 181.436 124.636 182.221 123.851C183.117 122.956 184.407 122.898 185.5 123.428C187.441 124.369 189.186 125.655 191.158 126.553C192.939 127.364 194.864 127.883 196.781 128.249C200.578 128.976 204.707 128.79 208.492 127.777C215.357 125.94 221.406 121.507 225.246 115.53C229.782 108.468 231.401 100.192 232.143 91.9449C232.954 82.9181 232.869 73.7674 231.793 64.7663C231.259 60.3027 230.438 55.8791 229.466 51.4918C228.774 48.3681 227.994 45.2652 227.259 42.1522C226.593 41.5164 225.949 40.8598 225.328 40.1794L225.309 40.1781C225.23 40.1976 225.149 40.2123 225.061 40.219C221.374 40.5001 217.378 40.13 214.233 38.0054C212.954 37.142 211.873 36.049 211.068 34.7906C209.938 34.0073 208.908 33.019 208.135 31.8771C207.586 31.2753 207.066 30.6465 206.572 29.9947C205.342 28.3704 204.688 26.6657 203.954 24.7916C203.937 24.7486 203.926 24.7064 203.918 24.6649C203.777 24.4354 203.678 24.1839 203.63 23.93C201.993 23.7358 200.349 23.6069 198.722 23.5294C198.146 23.5022 197.568 23.4805 196.99 23.4618C197.142 24.0265 197.233 24.6123 197.253 25.2138C197.719 25.2347 198.195 25.2889 198.682 25.3667C200.966 25.7304 202.431 26.8998 203.818 28.7323C205.168 30.5158 206.245 32.6609 207.044 34.7473C207.535 36.0247 206.881 37.4367 205.806 38.259C203.015 38.4961 200.273 39.0958 197.704 40.2839C197.614 40.3259 197.548 40.3993 197.505 40.4859C195.454 41.0968 193.388 41.6556 191.323 42.13C189.329 42.588 187.316 42.7786 185.312 42.2732C184.45 42.056 183.607 41.7342 182.779 41.3734C182.333 41.4274 181.851 41.3424 181.361 41.0613C180.618 40.6361 179.871 40.1711 179.136 39.6708C177.836 39.0477 176.558 38.3782 175.337 37.6131L175.33 37.6038C174.356 36.4228 172.967 35.2197 171.412 34.3087C171.24 34.046 171.089 33.7697 170.967 33.4744C170.298 31.8472 170.578 29.879 171.989 28.7598C172.01 28.3737 172.178 27.9955 172.55 27.6922C172.846 27.452 173.149 27.2237 173.461 27.0062C173.396 26.9578 173.33 26.9111 173.265 26.8616C173.137 26.7646 173.014 26.6601 172.893 26.5524C171.951 27.0687 171.001 27.5741 170.029 28.0241C170.004 28.042 169.981 28.061 169.955 28.0778C168.127 29.2775 166.397 30.6553 164.547 31.8114C164.103 32.088 163.662 32.3563 163.224 32.6254C163.06 32.8496 162.899 33.077 162.744 33.3087C162.678 33.6652 162.577 34.0212 162.452 34.3678C162.694 34.5605 162.891 34.8143 163.025 35.1153C163.6 35.3341 164.141 35.6118 164.646 35.9429L165.094 36.1414C165.669 35.6802 166.277 35.2633 166.931 34.9167C168.981 35.0498 171.196 36.5022 172.754 37.983C172.863 38.1059 172.97 38.2299 173.072 38.3558C173.17 38.4354 173.27 38.5201 173.369 38.6032C173.53 38.7767 173.68 38.9482 173.818 39.1153C173.973 39.3031 174.148 39.4066 174.325 39.4498C175.28 40.3456 176.174 41.3536 176.785 42.401C177.767 44.0824 177.079 46.1784 176.36 47.8283C176.243 48.0977 176.119 48.3628 175.989 48.6249C174.615 50.4761 173.312 52.3791 172.01 54.2826C171.132 55.1305 170.261 55.9838 169.427 56.8711C169.291 56.9625 169.147 57.0501 168.989 57.1313C166.564 58.3797 164.217 56.9744 161.906 56.0993L161.648 56.0038C159.266 55.1427 156.302 54.5768 156.151 51.4758C156.131 51.0533 156.147 50.6204 156.189 50.1826C156.775 48.6289 157.447 47.1038 158.196 45.6182C158.045 45.4549 157.91 45.274 157.796 45.0723C157.554 44.7665 157.352 44.4368 157.199 44.0888C156.093 46.2069 155.039 48.4787 153.617 50.3371C152.834 51.3614 151.857 51.7305 150.822 51.7281C150.385 51.9485 149.895 52.0226 149.425 51.967L149.474 52.5339C149.518 53.0066 149.568 53.4789 149.641 53.9424C150.642 53.9261 151.689 54.2006 152.622 54.5696C155.36 55.6522 157.999 57.1514 160.641 58.451C161.916 59.0784 163.669 59.6044 164.711 60.5843C165.51 61.3361 165.418 62.2671 165.115 63.2356C165.063 63.4007 165.006 63.5645 164.952 63.7289L164.949 63.7826C164.097 64.8556 163.514 66.1359 163.09 67.4577C162.399 68.6335 161.916 69.9531 161.587 71.2463C161.321 72.297 161.132 73.3692 161.008 74.4514L160.976 74.7468L160.959 74.7816L160.95 75.0368C160.774 76.9425 160.795 78.8722 160.954 80.7624C160.998 81.2885 161.053 81.8155 161.122 82.3406C160.824 83.272 159.411 83.4016 158.678 82.8302C157.872 82.2014 157.025 81.6298 156.145 81.114C154.946 81.6603 153.559 81.7535 152.22 81.3059C152.124 81.2741 152.033 81.2356 151.941 81.1993C150.937 81.3238 149.943 81.5579 148.991 81.835L148.706 81.9194C147.188 82.3761 145.741 82.9474 144.598 84.1074C142.568 86.168 141.914 89.4986 142.328 92.287C142.731 94.9997 144.305 98.0999 147.142 98.8885C148.303 99.2113 149.554 99.202 150.682 98.7509C151.111 98.5796 151.478 98.3313 151.84 98.059C152.285 97.7244 152.635 97.3479 153.163 97.1362C153.644 96.943 154.475 96.958 154.71 96.9468C155.444 96.9112 156.065 97.4855 156.281 98.1424C156.939 100.147 155.95 101.619 154.361 102.605C155.03 103.616 155.656 104.673 156.318 105.629C157.555 107.416 158.86 109.142 160.213 110.84C161.602 112.585 163.083 114.245 164.697 115.784C165.426 116.479 166.177 117.151 166.95 117.796L167.376 118.149C168.098 118.752 168.729 119.365 168.704 120.416C168.69 121.005 168.299 121.552 167.72 121.708C165.671 122.263 163.524 119.577 162.189 118.2L162.084 118.092C160.469 116.459 158.967 114.703 157.608 112.85C156.208 110.94 155.061 108.831 154.137 106.654C153.707 105.643 153.241 104.487 152.911 103.318C151.131 104.008 149.063 104.255 147.648 104.092C146.342 103.943 145.15 103.568 144.073 103.021C143.853 103.514 143.557 103.973 143.197 104.355C141.863 105.77 139.921 106.174 138.04 106.157C135.632 106.135 133.47 104.616 133.383 102.054C133.326 100.393 134.187 98.9676 135.443 97.9959C135.908 96.8463 136.793 95.8989 138.074 95.5913C137.226 92.97 137.077 90.0817 137.714 87.4353C138.345 84.8153 139.785 82.3335 141.914 80.6985L142.035 80.6068L141.984 80.6341C141.481 80.9112 140.99 81.2102 140.493 81.4967L140.269 81.6242C138.059 82.872 135.499 83.9439 132.925 83.2765C128.841 82.2172 128.487 77.1234 132.002 75.113C133.216 74.4181 134.619 74.156 136.005 73.9823C136.224 73.6969 136.484 73.4419 136.771 73.2356C136.814 72.2995 137.285 71.3636 138.118 70.7757C138.968 70.176 139.922 70.1167 140.81 70.3919C141.141 70.1434 141.5 69.9259 141.895 69.7559C142.238 69.6079 142.585 69.5004 142.933 69.4261C142.927 69.1466 142.924 68.8671 142.92 68.5873C142.864 68.3267 142.83 68.0536 142.795 67.7695C142.732 67.7588 142.669 67.7487 142.607 67.7353C141.702 67.5376 140.884 67.1316 140.173 66.5843C139.034 67.3035 137.653 67.5755 136.01 67.0891C134.484 66.6375 133.047 65.2185 132.336 63.5881C131.362 63.3922 130.416 63.1076 129.588 62.5678C128.054 62.9323 126.401 62.3427 125.78 60.7554C125.319 59.5784 125.873 58.1557 126.861 57.4261C127.149 57.2137 127.461 57.2535 127.708 57.4178C127.767 57.2267 127.835 57.0375 127.92 56.8526C127.954 56.7781 127.991 56.7054 128.028 56.6329C127.991 55.0739 128.557 53.5667 129.972 52.7302C131.023 52.1094 132.276 52.0418 133.405 52.4004C134.026 51.8224 134.811 51.3809 135.787 51.1385C137.503 50.712 139.309 51.1984 140.531 52.4852C140.795 52.4074 141.069 52.3521 141.349 52.3171C141.451 51.5993 141.695 50.909 142.205 50.3702C142.57 49.9835 143.008 49.6757 143.483 49.4598C143.699 48.6466 144.053 47.9186 144.647 47.3093C144.357 47.0642 144.093 46.7885 143.868 46.4817C143.619 46.44 143.371 46.3863 143.129 46.3088C141.838 45.8943 140.948 45.0808 140.345 44.0669C139.227 44.3531 138.043 44.2484 136.879 43.5185C136.038 42.9907 135.404 42.1468 135.069 41.204L134.114 40.8691C133.213 40.5506 132.567 39.9557 132.198 39.2478C131.729 39.4164 131.212 39.4103 130.791 39.0853C128.325 37.1815 130.009 34.0271 132.65 33.4007C133.724 33.146 134.662 33.2911 135.496 33.6794C136.089 33.1078 136.833 32.6786 137.685 32.4851C138.678 32.2596 139.725 32.425 140.642 32.8632L140.879 32.86C141.802 32.1746 142.987 31.8675 144.435 32.1986C146.074 32.5736 147.191 33.491 147.949 34.6858C148.192 34.4659 148.466 34.2721 148.765 34.1094C149.613 33.6481 150.518 33.5343 151.386 33.6786C151.678 33.2628 151.977 32.8526 152.285 32.4496C151.553 31.8774 151.052 30.9899 151.025 30.0051C150.804 29.8672 150.59 29.7104 150.385 29.5661C149.382 28.8598 148.531 27.9741 148.145 26.7836C147.952 26.1898 147.881 25.5709 147.904 24.9503C147.796 24.9268 147.688 24.9017 147.582 24.8712C143.319 23.6452 141.552 17.7705 144.921 14.6176C146.69 12.9618 149.38 13.8995 151.13 15.1222C152.323 15.9559 153.271 16.9926 154.13 18.1379C154.17 18.1462 154.21 18.1489 154.25 18.1588C155.484 18.4503 156.465 19.2416 157.19 20.2534C158.47 20.031 159.833 20.2782 161.047 21.1668C161.933 21.8146 162.489 22.6163 162.778 23.4875C163.928 22.8873 165.112 22.3611 166.322 21.8964C166.401 21.7058 166.484 21.515 166.58 21.3255C166.766 20.9576 167.01 20.6377 167.292 20.3672C166.985 20.023 166.712 19.6385 166.493 19.2106C165.451 17.1812 165.827 15.1272 166.978 13.5732C166.475 12.4402 166.32 11.1553 166.618 9.93294C166.673 9.70606 166.743 9.48799 166.825 9.27821C166.126 8.18975 165.679 6.93694 165.563 5.6363ZM146.871 87.729C147.61 87.5492 147.784 87.3135 148.615 87.3813C149.258 87.434 149.916 87.5441 150.54 87.7055C152.028 88.0909 153.417 88.8696 154.64 89.7865C156.375 91.0871 154.298 93.5042 152.917 92.1172L152.875 92.074C151.947 91.0788 150.905 90.3014 149.738 89.6082C149.146 89.2571 148.536 89.0035 147.918 88.7082C147.49 88.5043 147.243 88.1705 146.841 87.958C146.746 87.9078 146.769 87.7541 146.871 87.729ZM150.849 68.1413C150.44 67.9972 149.972 68.3048 149.862 68.7011C149.745 69.1281 149.994 69.5144 150.379 69.6708L150.422 69.6872C150.946 69.8718 151.423 70.1786 151.83 70.5541L151.916 70.6357C152.657 71.3551 153.792 70.2225 153.05 69.5018C152.421 68.8906 151.675 68.4325 150.849 68.1413ZM170.033 38.9555C169.611 38.0324 168.264 38.8074 168.629 39.7217L168.648 39.7647C169.028 40.5959 168.872 41.5606 168.458 42.3437L168.417 42.4189C167.913 43.3205 169.298 44.13 169.802 43.2281C170.549 41.8897 170.673 40.3574 170.033 38.9555ZM181.678 27.4639L181.659 27.3715C181.469 26.3584 179.924 26.7873 180.113 27.7975C180.428 29.4771 181.648 30.5805 183.213 31.1283C184.189 31.4699 184.609 29.9215 183.639 29.5821C182.602 29.2191 181.909 28.5313 181.678 27.4639ZM206.948 25.8416L206.676 25.8298L206.883 26.1035C206.903 26.0156 206.924 25.9282 206.948 25.8416Z" fill="black"/>
<path fill-rule="evenodd" clip-rule="evenodd" d="M206.566 103.884C209.057 102.992 211.702 103.327 214.215 104.254L214.441 104.339C216.749 105.219 219.571 106.747 220.515 109.135C220.702 109.608 220.79 110.092 220.802 110.574C221.11 110.604 221.417 110.645 221.72 110.698C222.344 110.808 222.315 111.8 221.72 111.93C221.343 112.013 220.959 112.073 220.572 112.118C220.214 113.231 219.473 114.242 218.537 114.951C216.346 116.609 213.326 116.922 210.677 117.175C207.749 117.456 204.805 117.387 201.887 117.033L200.86 116.901C198.47 116.591 195.806 116.192 193.774 114.913C191.862 113.711 190.554 111.388 191.364 109.132C192.192 106.822 195.033 105.842 197.142 105.1C200.172 104.035 203.396 103.617 206.566 103.884ZM202.339 111.626C202.368 112.301 202.394 112.976 202.42 113.652C202.428 113.859 202.369 114.046 202.267 114.208C203.716 114.378 205.178 114.458 206.636 114.457C206.37 113.651 206.355 112.726 206.34 111.866C205.005 111.801 203.672 111.723 202.339 111.626ZM207.704 111.929L207.821 112.366C208.001 113.049 208.164 113.753 208.14 114.428C208.82 114.402 209.497 114.362 210.171 114.303L211.031 114.23C211.226 114.213 211.424 114.196 211.623 114.177C211.667 113.477 211.75 112.768 211.823 112.069C210.45 112.031 209.077 111.987 207.704 111.929ZM213.151 112.099C213.214 112.717 213.272 113.349 213.297 113.975C214.4 113.804 215.482 113.536 216.407 113.063C216.872 112.825 217.245 112.538 217.523 112.219C216.589 112.197 215.658 112.15 214.754 112.135C214.576 112.133 214.398 112.129 214.22 112.125L213.151 112.099ZM193.987 110.677C194.059 111.967 196.099 112.888 197.149 113.191C198.151 113.48 199.171 113.715 200.201 113.901C200.181 113.815 200.172 113.73 200.179 113.652C200.244 112.924 200.309 112.196 200.377 111.469L199.824 111.425C197.881 111.276 195.86 111.156 193.987 110.677ZM206.715 105.762C206.878 107.378 207.105 108.986 207.407 110.581L207.96 110.593C209.287 110.614 210.615 110.623 211.943 110.624C211.946 110.559 211.95 110.494 211.952 110.43C212.002 109.08 211.983 107.729 211.933 106.38C210.247 106.008 208.481 105.886 206.715 105.762ZM212.626 106.549C212.774 107.905 212.897 109.262 213.009 110.621L214.173 110.619C214.367 110.619 214.56 110.618 214.754 110.616C215.844 110.606 216.964 110.535 218.082 110.505C217.998 109.921 217.655 109.328 217.021 108.787C215.681 107.645 214.194 106.97 212.626 106.549ZM205.678 105.452C204.396 105.589 203.124 105.814 201.87 106.129C202.197 107.078 202.135 108.164 202.204 109.155C202.235 109.592 202.26 110.029 202.283 110.465C203.624 110.498 204.965 110.529 206.306 110.558C206.263 108.951 206.291 107.344 206.382 105.739L206.235 105.728C206.018 105.713 205.825 105.604 205.678 105.452ZM201.02 106.357C200.434 106.525 199.852 106.711 199.277 106.919L198.648 107.146C197.134 107.698 195.13 108.497 194.286 109.731C194.144 109.938 194.058 110.139 194.016 110.333C196.139 110.137 198.341 110.334 200.483 110.415C200.512 110.135 200.542 109.855 200.574 109.575L200.623 109.155C200.733 108.249 200.732 107.243 201.02 106.357ZM211.626 86.9504C213.644 88.177 216.719 91.0373 214.548 94.0782C211.993 96.7595 208.313 93.6852 206.5 92.2948C204.818 91.2173 202.929 93.9887 204.489 95.2469C217.592 104.946 222.909 87.2711 212.647 85.5081C211.517 85.3139 211.097 86.5709 211.626 86.9504ZM186.888 72.0774C189.756 67.0935 196.852 67.036 200.912 70.842C204.788 74.4762 205.267 80.6763 202.171 84.9265C198.872 89.4561 192.462 90.7092 187.265 89.0948C182.393 87.5815 179.774 82.2958 181.444 77.4529C182.347 74.8335 184.426 73.0224 186.888 72.0774ZM184.216 63.7295C186.64 61.5842 191.044 59.5123 194.313 60.5681C196.192 61.175 197.011 64.2026 194.913 65.1622C192.484 66.2734 189.683 65.8212 187.211 66.973C186.172 67.457 185.196 68.0617 184.473 68.9487C183.903 69.6478 183.324 70.5676 182.5 70.9706C182.284 71.0767 181.99 71.0794 181.817 70.8827C180.011 68.8405 182.639 65.1248 184.216 63.7295ZM218.839 60.4616C220.337 60.0413 221.999 60.0498 223.521 60.3139C225.042 60.5779 226.586 61.2083 227.828 62.1279L227.973 62.2355C229.329 63.2571 230.947 64.7435 230.86 66.5533C230.787 68.0645 229.197 69.0867 227.825 68.2946C226.706 67.6487 226.179 66.3548 225.232 65.4932C224.45 64.7821 223.532 64.2214 222.552 63.8286C221.463 63.3922 220.373 63.1877 219.205 63.1682C218.306 63.1533 217.401 63.4483 216.519 63.5426C216.591 63.6917 215.894 63.6223 215.494 63.49C215.198 63.3638 215.196 62.9894 215.299 62.7465C215.808 61.5431 217.661 60.7919 218.839 60.4616ZM220.47 68.9181C222.979 68.42 225.769 68.9654 227.869 70.4363C231.635 73.0736 233.324 78.528 231.574 82.7939C229.838 87.0277 225.091 89.7212 220.564 88.9123C215.943 88.0865 212.369 83.4339 212.867 78.7466C213.079 76.7511 213.95 74.9526 215.238 73.5932C215.248 73.5464 215.259 73.4991 215.277 73.4504C216.183 71.0408 217.899 69.4288 220.47 68.9181ZM197.507 72.7501C194.63 71.0184 190.4 71.9852 187.929 74.0758C187.438 74.4911 186.884 74.3695 186.583 74.0072C184.906 75.361 183.721 77.2549 183.531 79.5611C183.19 83.6977 186.136 86.4182 190.106 86.7311C194.163 87.051 198.361 85.919 200.271 82.0326C201.921 78.6774 200.71 74.6777 197.507 72.7501ZM224.745 72.9291C222.492 72.0458 219.261 72.5678 217.294 74.0793C215.796 76.0098 215.067 78.6586 215.643 80.8281C216.475 83.9612 219.482 86.4018 222.785 86.0547C225.842 85.7335 228.604 83.2867 228.932 80.18C229.248 77.192 227.608 74.0515 224.745 72.9291ZM222.833 77.6176C223.347 77.2514 223.959 77.6638 224.147 78.152L224.255 78.3733C224.311 78.4917 224.37 78.6141 224.372 78.6186L224.392 78.6777C224.419 78.7287 224.452 78.7763 224.483 78.8247C224.507 78.8412 224.707 79.0911 224.734 79.1237C225.056 79.5214 225.227 79.8851 225.216 80.4083C225.197 81.4428 224.232 82.1713 223.231 81.9209C222.154 81.6515 221.696 80.5382 221.794 79.516C221.872 78.7068 222.166 78.093 222.833 77.6176ZM193.605 77.8152C194.08 77.3833 194.813 77.347 195.282 77.8152C195.539 78.0722 195.643 78.3587 195.828 78.6578L195.915 78.7951C196.108 79.0902 196.309 79.3735 196.36 79.7355C196.483 80.5877 196.218 81.3809 195.379 81.7355C194.543 82.0877 193.77 81.7275 193.261 81.0418C192.659 80.2294 192.842 78.5084 193.605 77.8152Z" fill="black"/>
</svg>
