<svg width="321" height="301" viewBox="0 0 321 301" fill="none" xmlns="http://www.w3.org/2000/svg">
<path fill-rule="evenodd" clip-rule="evenodd" d="M165.563 5.63629C165.236 1.95594 168.629 -0.81323 171.777 0.217532C172.354 0.289431 172.916 0.471682 173.418 0.778201C174.867 1.66303 175.184 3.09009 174.805 4.32361C175.485 4.83698 176.021 5.5329 176.291 6.37226C176.568 7.23706 176.539 8.07593 176.278 8.80683C177.266 9.45911 178.012 10.4434 178.186 11.6628C178.268 12.2419 178.235 12.8162 178.097 13.3439C179.592 13.8514 180.813 14.9883 180.794 16.7085C181.662 16.764 182.532 16.7764 183.417 16.7272C183.543 16.371 183.698 16.0236 183.927 15.7037C184.391 15.0593 185.049 14.6166 185.779 14.3405L185.878 14.3039L185.877 14.1083C185.318 13.4896 185.057 12.7093 185.652 11.8594C185.754 11.7138 185.878 11.5936 186.017 11.4904C186.066 11.1216 186.146 10.7566 186.243 10.3976C185.751 9.71088 185.804 8.57135 186.631 8.23035C186.516 7.56067 186.509 6.86615 186.633 6.1662C187.143 3.29877 189.911 1.34583 192.763 1.45539C193.12 1.469 193.468 1.52271 193.803 1.60822C194.498 1.68091 195.189 1.83618 195.868 2.06708C196.652 2.3338 196.854 2.98853 196.681 3.54193C197.746 4.96552 198.048 6.89954 196.976 8.63764C196.935 8.70368 196.89 8.76648 196.846 8.82978C197.061 8.99146 197.249 9.20471 197.387 9.47864C197.737 10.1681 197.65 11.043 197.118 11.6184C196.976 11.7718 196.793 11.887 196.592 11.961L196.589 12.0176C196.519 12.941 196.372 13.8667 196.095 14.7387C197.224 15.7871 197.974 17.2138 198.107 18.7512C198.527 18.7903 198.948 18.8359 199.368 18.8835C199.43 18.4621 199.685 18.0826 200.074 17.7886C200.398 17.5428 200.745 17.3461 201.101 17.1989C201.272 16.3151 201.692 15.4685 202.401 14.7966C202.664 14.5476 202.951 14.3279 203.258 14.139C203.24 13.181 203.454 12.2237 203.985 11.3172C204.426 10.5634 205.069 10.0166 205.802 9.66864C206.336 8.59436 207.326 7.71784 208.766 7.21967C209.843 6.84766 210.982 7.2898 211.8 7.98511L211.983 8.14539C212.734 8.80786 213.005 10.0251 212.728 10.9642C212.598 11.4054 212.381 11.9209 212.065 12.3397C212.399 13.8087 211.736 15.0342 210.72 15.7229C211.067 16.2167 211.359 16.7646 211.605 17.3496C212.031 18.3611 211.552 19.6205 210.784 20.4175C211.12 20.9536 211.339 21.5789 211.419 22.2069C211.761 22.2269 212.102 22.2878 212.438 22.3832C212.62 21.7654 212.962 21.1911 213.486 20.7221C213.715 20.274 213.988 19.8568 214.293 19.492C214.774 18.9164 215.396 18.5017 216.076 18.3328C216.167 18.1192 216.295 17.9148 216.456 17.728C216.294 15.8552 217.535 13.9215 219.447 13.9199C219.581 13.4832 219.746 13.0513 219.944 12.6277C220.331 11.7969 221.152 11.2993 222.042 11.1358C222.565 9.86212 223.592 8.93585 225.355 8.78144C229.292 8.43671 231.769 13.2106 230.808 16.6382C230.522 17.6564 229.852 18.5933 228.964 19.1686C228.731 19.3191 228.497 19.4284 228.26 19.5187C228.023 19.8499 227.703 20.1441 227.293 20.3838C227.273 20.3958 227.252 20.4074 227.232 20.4188C227.16 20.4582 227.087 20.4944 227.013 20.5276C227.022 22.0573 225.966 23.3012 224.655 23.697C224.739 24.6614 224.493 25.6284 223.76 26.3756L223.708 26.4257L223.601 26.5212L223.593 26.5634C223.853 27.2347 223.826 27.9741 223.452 28.5826C223.485 29.1417 223.584 29.6882 223.772 30.2077C224.495 30.7932 225.134 31.4659 225.705 32.1959C226.087 31.8507 226.662 31.6949 227.16 31.8835C227.299 31.8366 227.441 31.806 227.577 31.7924C227.805 31.7695 228.027 31.7703 228.246 31.7863C228.347 31.6396 228.463 31.5001 228.595 31.3694C229.525 30.4504 230.874 30.4694 231.945 31.0402C232.137 30.9004 232.353 30.7769 232.598 30.6735C235.329 29.5225 237.119 32.9872 237.385 35.1468C237.53 36.325 236.516 37.0516 235.475 37.1129C235.264 37.8272 234.585 38.3414 233.827 38.5159C233.961 39.3983 233.376 40.2989 232.579 40.6345C232.223 40.7844 231.879 40.8253 231.555 40.7817L231.571 40.9907C231.633 41.8195 231.214 42.347 230.641 42.5808C230.573 42.857 230.423 43.0822 230.226 43.2464C231.077 44.8582 231.663 46.5941 232.019 48.4207C232.123 48.9557 232.22 49.4932 232.31 50.0327C232.615 51.0263 232.898 52.0214 233.162 53.0121C234.571 58.3109 235.519 63.7062 236.155 69.1503C237.273 78.7209 237.317 88.4882 236.197 98.0627C235.628 102.935 234.681 107.697 232.745 112.222C231.13 115.997 228.884 119.272 226.298 122.442C222.328 127.308 217.033 131.184 211.09 133.225C211.266 133.905 211.461 134.54 211.675 135.137C211.708 135.213 211.741 135.288 211.775 135.362C212.606 137.212 213.704 138.97 215.022 140.509C216.11 141.784 217.288 142.955 218.635 143.938C219.429 142.567 221.271 142.383 222.813 142.834C224.88 143.438 226.919 144.213 228.912 145.032L229.31 145.197C229.795 145.398 230.295 145.595 230.801 145.795L230.802 145.795L230.803 145.795C232.354 146.407 233.961 147.04 235.35 147.88C235.578 147.988 235.803 148.097 236.027 148.205C236.299 148.337 236.568 148.468 236.834 148.598C237.161 148.757 237.482 148.914 237.798 149.066C238.054 149.189 238.306 149.31 238.555 149.427C243.589 151.792 248.548 154.3 253.485 156.858L254.543 157.407C256.611 158.484 258.661 159.571 260.46 161.073C262.282 162.595 263.699 164.672 265.03 166.623L265.049 166.651C266.74 169.13 268.377 171.648 270.013 174.166L270.015 174.169L270.02 174.176L270.022 174.179C271.34 176.206 272.657 178.233 274.003 180.24L274.018 180.262L274.022 180.268C280.114 189.345 286.207 198.421 292.335 207.476C292.836 208.218 293.359 208.954 293.883 209.691C294.91 211.135 295.941 212.584 296.822 214.099C298.097 216.285 298.062 218.529 297.814 220.969L297.784 221.258L297.81 221.287C297.872 221.174 298.031 221.124 298.145 221.234C300.238 223.25 301.847 225.707 303.442 228.142L303.445 228.145C303.88 228.81 304.314 229.473 304.757 230.125C304.838 230.243 304.919 230.362 305 230.48C305.127 230.665 305.254 230.85 305.382 231.035C305.587 231.331 305.793 231.626 305.998 231.921C307.585 234.196 309.17 236.47 310.332 239.003C311.696 241.974 312.575 244.988 312.837 248.254C313.099 251.496 312.759 254.745 312.187 257.939C311.062 264.229 308.657 270.186 306.016 275.972C303.449 281.597 300.548 287.061 297.484 292.426L296.387 294.342C295.047 296.674 293.693 299.002 292.244 301.261C292.187 301.349 292.131 301.437 292.075 301.525C291.834 301.904 291.595 302.283 291.356 302.663L291.355 302.664C289.873 305.019 288.399 307.364 286.415 309.321C285.025 310.695 282.623 309.807 282.245 308.12C281.512 308.51 280.753 308.77 279.965 308.862C271.895 308.829 263.819 308.49 255.743 308.15H255.741H255.738H255.736C249.712 307.897 243.688 307.643 237.666 307.517C236.391 307.201 235.546 306.661 235.058 305.98C230.383 306.455 225.686 306.151 221.011 305.74C215.858 305.285 210.708 304.855 205.542 304.585C188.83 303.706 172.094 303.875 155.367 304.114L145.915 304.251C138.377 304.357 130.838 304.44 123.3 304.382L119.772 304.349C118.281 304.335 116.789 304.316 115.299 304.273L114.406 304.243C114.186 304.235 113.957 304.232 113.722 304.231C113.627 304.231 113.531 304.231 113.434 304.231L113.281 304.231H113.279C111.721 304.233 109.973 304.235 108.74 303.396C107.468 302.53 107.184 300.943 107.951 299.663C108.173 299.294 108.478 298.965 108.796 298.644C109.43 293.228 109.794 287.785 110.157 282.344L110.188 281.878C111.487 262.295 110.728 242.813 107.732 223.428C99.6928 225.884 91.7763 228.965 84.063 232.271C79.8909 234.059 75.7402 235.913 71.6376 237.859C70.6331 238.335 69.6274 238.844 68.6162 239.356C65.8582 240.751 63.0594 242.166 60.1317 243.011C59.768 243.334 59.2595 243.487 58.8084 243.344L58.75 243.324H58.7473C58.3357 243.42 57.8787 243.361 57.4297 243.091L57.3227 243.026C57.2675 242.992 57.2122 242.958 57.157 242.924L57.0207 242.837C55.6909 242 54.3539 240.978 53.3696 239.742L53.2567 239.82C53.0533 239.959 52.8506 240.098 52.6499 240.237C52.5847 240.282 52.5197 240.328 52.4549 240.373C52.375 240.429 52.2955 240.485 52.2165 240.541L51.2702 241.216L51.0823 241.351C50.7215 241.648 50.3586 241.942 49.996 242.236C49.7992 242.395 49.6025 242.555 49.4062 242.714C48.0164 243.847 46.632 244.986 45.2582 246.135C45.1155 246.255 44.9689 246.373 44.8217 246.491C44.4064 246.826 43.9857 247.165 43.6306 247.554L43.5607 247.631L43.5506 247.643L43.543 247.652L43.5339 247.663L43.5454 247.68C45.4995 248.948 47.2251 250.829 48.7798 252.525L48.7803 252.525L48.7807 252.525L49.0668 252.837C50.8204 254.745 52.5133 256.713 54.1924 258.688L55.8179 260.605L56.4249 261.322L57.2843 262.338C68.305 275.364 79.5564 288.663 93.8049 298.214C96.1569 299.791 93.9145 303.631 91.5786 302.02C90.1516 301.037 88.7494 300.019 87.3696 298.972C88.417 299.97 89.4708 300.96 90.5308 301.943C92.0414 303.347 91.4227 306.487 89.2364 306.853L86.6318 307.235C78.2218 308.459 69.652 309.562 61.177 308.897C55.7585 308.307 51.7536 304.957 48.0451 301.227C41.9486 296.822 36.2599 291.818 30.946 286.517C24.9352 280.523 19.4882 273.922 14.3834 267.148C11.8951 263.842 9.51109 260.467 7.22594 257.017C6.78145 256.345 6.32298 255.67 5.86105 254.989C4.02042 252.276 2.12495 249.483 0.840896 246.53C-0.000198501 244.588 -0.31102 242.484 0.378525 240.437C1.01089 238.556 2.2615 236.994 3.56253 235.524L3.68463 235.387C6.67537 232.028 9.71956 228.708 12.7905 225.421C15.8721 222.124 19.0953 218.944 22.3854 215.857C24.9699 213.428 27.664 211.287 30.5451 209.304C30.2859 209.12 30.0266 208.944 29.762 208.773C28.9575 208.249 28.7544 207.129 29.46 206.418C30.8581 205.006 32.4109 203.729 33.9562 202.457L33.9582 202.455L33.9597 202.454L33.9611 202.453C34.5441 201.973 35.126 201.494 35.6981 201.01C37.6518 199.353 39.6056 197.695 41.5594 196.036L41.5913 196.009C45.5897 192.621 49.588 189.229 53.5863 185.838C58.7675 181.444 63.9277 177.028 69.0882 172.612C71.0806 170.907 73.073 169.202 75.0667 167.498C77.4593 165.453 79.8698 163.43 82.2798 161.406C82.8761 160.905 83.4723 160.405 84.0681 159.904L89.4063 155.412L92.0172 153.22C93.355 152.1 94.7212 150.992 96.2424 150.138C99.1837 148.486 102.614 147.604 105.931 146.751C106.651 146.566 107.366 146.383 108.069 146.193L108.331 146.121C112.754 144.911 117.202 143.772 121.673 142.757C126.15 141.741 130.645 140.817 135.159 139.98C139.216 139.227 143.37 138.58 147.507 138.484C148.533 138.094 149.822 137.957 150.832 138.374C151.249 138.548 151.685 138.802 152.072 139.122C152.656 138.917 153.238 138.743 153.816 138.57C155.24 138.144 156.637 137.725 157.981 136.87C159.868 135.67 161.539 134.093 162.945 132.356C164.85 129.997 166.16 127.357 167.124 124.568C167.305 123.602 167.407 122.659 167.502 121.755C165.771 122.034 163.993 120.128 162.713 118.755C162.584 118.617 162.46 118.484 162.342 118.359C162.29 118.304 162.239 118.251 162.189 118.2L162.084 118.092C160.469 116.459 158.967 114.703 157.608 112.85C156.208 110.94 155.061 108.831 154.137 106.654C153.708 105.643 153.241 104.487 152.911 103.318C151.131 104.008 149.063 104.255 147.648 104.092C146.342 103.943 145.15 103.568 144.073 103.021C143.853 103.514 143.557 103.973 143.197 104.355C141.863 105.77 139.921 106.174 138.04 106.157C135.632 106.135 133.47 104.616 133.383 102.054C133.326 100.393 134.187 98.9677 135.443 97.996C135.909 96.8463 136.793 95.8989 138.074 95.5914C137.226 92.97 137.077 90.0817 137.714 87.4352C138.345 84.8152 139.785 82.3335 141.914 80.6985L142.035 80.6068L141.984 80.6341C141.664 80.8107 141.348 80.9961 141.033 81.1816C140.853 81.2872 140.673 81.3928 140.493 81.4967L140.269 81.6241C138.059 82.872 135.499 83.9439 132.925 83.2765C128.841 82.2172 128.487 77.1234 132.002 75.113C133.216 74.4182 134.619 74.1559 136.005 73.9822C136.224 73.6968 136.484 73.4419 136.772 73.2356C136.814 72.2995 137.285 71.3636 138.118 70.7757C138.968 70.176 139.922 70.1167 140.81 70.3919C141.141 70.1434 141.5 69.9258 141.895 69.7559C142.238 69.6079 142.585 69.5004 142.933 69.4262C142.93 69.2732 142.928 69.1202 142.925 68.9673L142.923 68.8093L142.92 68.5873C142.864 68.3267 142.83 68.0536 142.795 67.7695L142.766 67.7646C142.713 67.7556 142.659 67.7466 142.607 67.7354C141.702 67.5376 140.885 67.1317 140.173 66.5844C139.034 67.3035 137.653 67.5755 136.01 67.0892C134.485 66.6375 133.047 65.2185 132.336 63.5881C131.362 63.3922 130.416 63.1075 129.588 62.5678C128.054 62.9323 126.402 62.3427 125.78 60.7554C125.319 59.5784 125.873 58.1556 126.861 57.4261C127.149 57.2136 127.461 57.2535 127.708 57.4178C127.767 57.2267 127.835 57.0375 127.92 56.8526C127.954 56.7781 127.991 56.7054 128.028 56.6329C127.991 55.0739 128.557 53.5667 129.972 52.7302C131.023 52.1094 132.276 52.0418 133.405 52.4005C134.026 51.8224 134.811 51.3809 135.787 51.1386C137.503 50.712 139.31 51.1984 140.531 52.4852C140.795 52.4074 141.069 52.3521 141.349 52.3171C141.451 51.5992 141.695 50.909 142.205 50.3702C142.57 49.9835 143.009 49.6757 143.483 49.4598C143.699 48.6465 144.054 47.9186 144.647 47.3093C144.357 47.0643 144.093 46.7885 143.868 46.4817C143.619 46.44 143.371 46.3863 143.129 46.3088C141.838 45.8943 140.948 45.0808 140.345 44.0669C139.227 44.3532 138.043 44.2484 136.88 43.5186C136.038 42.9907 135.404 42.1468 135.069 41.204L134.114 40.8691C133.213 40.5506 132.567 39.9558 132.198 39.2478C131.729 39.4164 131.212 39.4103 130.791 39.0853C128.325 37.1815 130.009 34.027 132.65 33.4006C133.724 33.146 134.662 33.2911 135.496 33.6794C136.089 33.1078 136.833 32.6786 137.685 32.4851C138.678 32.2596 139.725 32.425 140.642 32.8632L140.879 32.86C141.802 32.1746 142.987 31.8675 144.435 32.1986C146.074 32.5736 147.191 33.491 147.949 34.6858C148.192 34.4659 148.466 34.2721 148.765 34.1094C149.613 33.6481 150.518 33.5343 151.386 33.6786C151.678 33.2628 151.977 32.8525 152.285 32.4496C151.553 31.8774 151.052 30.9899 151.025 30.0051C150.934 29.9479 150.843 29.8874 150.754 29.8259C150.671 29.7686 150.589 29.7105 150.508 29.6534C150.467 29.624 150.426 29.5948 150.385 29.5661C149.382 28.8597 148.531 27.9741 148.145 26.7836C147.952 26.1898 147.881 25.5709 147.904 24.9503C147.846 24.9377 147.788 24.9247 147.731 24.9106C147.681 24.8984 147.631 24.8854 147.582 24.8712C143.319 23.6451 141.552 17.7705 144.921 14.6176C146.69 12.9618 149.38 13.8995 151.13 15.1221C152.323 15.9559 153.271 16.9926 154.13 18.1379C154.147 18.1415 154.164 18.144 154.181 18.1465C154.193 18.1481 154.204 18.1498 154.215 18.1517C154.227 18.1536 154.239 18.1559 154.25 18.1588C155.484 18.4503 156.465 19.2416 157.19 20.2534C158.47 20.0311 159.833 20.2783 161.048 21.1668C161.933 21.8146 162.489 22.6163 162.778 23.4875C163.928 22.8873 165.112 22.3611 166.322 21.8964C166.401 21.7058 166.484 21.515 166.58 21.3256C166.767 20.9576 167.01 20.6377 167.293 20.3673C166.985 20.023 166.712 19.6385 166.493 19.2106C165.451 17.1812 165.827 15.1273 166.978 13.5732C166.475 12.4402 166.32 11.1553 166.618 9.93293C166.674 9.70606 166.743 9.48798 166.825 9.2782C166.126 8.18976 165.679 6.93695 165.563 5.63629ZM142.756 87.2092C142.86 86.9012 142.978 86.5995 143.111 86.3064C143.108 86.4428 143.107 86.5803 143.107 86.7191C142.985 86.879 142.868 87.0425 142.756 87.2092ZM272.568 261.815C274.119 258.133 275.793 254.159 278.535 251.296C278.538 251.134 278.533 250.973 278.519 250.815C277.898 250.446 277.314 250.015 276.79 249.521L276.76 249.49C276.513 249.228 275.491 247.939 275.163 247.167C274.735 247.319 274.307 247.466 273.88 247.61C273.134 247.861 272.517 247.68 272.081 247.281L271.251 247.795C270.364 248.336 269.41 248.851 268.43 248.877C267.195 248.909 266.225 248.227 265.565 247.223C265.466 247.073 265.373 246.921 265.285 246.768C265.18 246.587 265.081 246.406 264.982 246.224L264.981 246.224C264.662 245.64 264.345 245.061 263.868 244.55C263.129 243.76 262.275 243.092 261.401 242.455L260.372 241.706C258.484 240.328 256.654 238.936 255.133 237.116C255.007 236.963 254.872 236.806 254.735 236.644C254.045 235.834 253.268 234.923 252.88 234.002C252.79 233.789 252.733 233.588 252.723 233.393C252.621 234.083 252.517 234.775 252.413 235.464C250.953 245.168 249.775 254.938 249.398 264.751C249.213 269.59 249.131 274.435 249.347 279.277C249.454 281.696 249.63 284.112 249.874 286.523C249.994 287.73 250.12 288.936 250.267 290.138L250.3 290.417C250.343 290.785 250.371 291.142 250.339 291.48C251.515 292.059 252.191 293.524 252.661 294.668C253.019 295.539 252.741 296.386 252.164 296.998C252.854 297.626 253.468 298.364 253.984 299.208C254.062 299.336 253.956 299.443 253.842 299.444C254.721 300.324 255.623 301.155 256.773 301.584C257.143 301.663 257.379 301.647 257.551 301.543C257.735 301.022 257.926 300.503 258.116 299.986L258.117 299.984C258.258 299.6 258.399 299.217 258.536 298.835C258.662 298.486 258.785 298.137 258.902 297.789L259.069 297.295L259.192 296.928L259.359 296.433L259.48 296.072L259.72 295.357C260.233 293.826 260.747 292.296 261.273 290.769C262.672 286.711 264.221 282.708 265.779 278.708L267.322 274.743C268.837 270.858 270.369 266.977 272.006 263.142L272.185 262.722C272.272 262.516 272.36 262.31 272.447 262.102L272.568 261.815ZM31.6249 210.093L31.686 210.14C31.7412 210.182 31.7963 210.225 31.8514 210.268C31.6656 210.729 31.5789 211.219 31.5952 211.699C27.6374 214.606 23.9917 217.889 20.5923 221.424C21.4411 220.516 22.2963 219.613 23.1605 218.719C24.871 216.953 26.5895 215.186 28.3321 213.455C29.2173 212.574 30.0546 211.643 30.8837 210.706L31.5046 210.002C31.5448 210.032 31.5848 210.063 31.6249 210.093ZM14.8396 227.721C15.709 226.757 16.5793 225.793 17.4533 224.833C13.4064 229.414 9.70911 234.324 6.23447 239.321L5.77971 239.977C4.6064 240.924 3.39098 242.791 3.47795 244.3C3.46541 244.257 3.45322 244.214 3.44142 244.171C2.91603 242.245 3.72089 240.566 4.85155 239.05L4.9809 238.879C6.88634 236.394 9.04207 234.058 11.183 231.738L11.1833 231.737L11.1843 231.736C11.9529 230.903 12.7195 230.072 13.472 229.237L14.8396 227.721Z" fill="#FF2D82"/>
<path fill-rule="evenodd" clip-rule="evenodd" d="M180.697 119.029C195.037 118.003 214.699 120.845 218.846 137.194C220.133 143.144 222.667 145.755 226.925 149.646C253.954 184.236 159.652 190.05 154.804 156.32C144.591 160.039 133.474 160.827 123.255 164.586C117.712 166.633 112.687 169.863 107.871 173.241C88.2321 187.187 68.8715 201.532 49.3029 215.579C56.8754 219.066 71.2726 232.378 65.4061 241.323C64.0395 243.066 62.0109 244.267 60.2164 245.541L59.2702 246.216C57.2345 247.675 53.8077 250.161 51.9127 251.512L51.5633 251.767C51.4262 251.866 51.2717 251.977 51.132 252.077C64.7975 272.054 80.7906 290.486 98.5308 306.943C100.041 308.347 99.4227 311.487 97.2364 311.853L94.6318 312.235C86.2218 313.459 77.6519 314.562 69.1769 313.897C60.9229 312.999 55.949 305.693 50.3065 300.401C39.0387 288.885 28.5497 276.602 18.996 263.625L18.797 263.351C15.8236 259.288 11.8769 255.136 11.5881 249.89C11.0613 248.313 12.4476 246.053 13.7797 244.977L14.2344 244.321C21.3789 234.047 29.4647 224.139 39.5951 216.699C39.5575 215.59 40.0701 214.425 41.0852 213.69L83.4226 183.055C94.3464 175.538 104.5 166.705 116.34 160.635C128.447 154.806 142.111 154.577 154.518 149.713C154.781 146.206 162.153 145.312 161.92 145.853C169.698 141.159 173.703 135.573 174.938 130.44C176.173 125.306 174.638 120.625 180.697 119.029ZM285.394 229.016C298.485 209.32 310.964 231.112 316.414 244.246C322.853 262.22 309.518 284.33 300.904 299.825C297.731 304.128 293.558 313.204 287.965 313.862C273.874 313.805 259.764 312.813 245.665 312.517C236.562 310.259 249.335 296.58 258.158 301.576C260.831 302.576 262.166 305.611 264.773 306.584C265.723 306.787 265.788 306.364 266.175 305.418L266.229 305.286C266.918 303.649 267.586 302.004 268.264 300.363C274.004 286.229 280.073 272.22 286.107 258.216C287.396 255.176 285.588 252.671 283.238 250.862C281.438 249.381 273.703 245.765 280.991 247.357C278.185 240.843 281.557 234.232 285.394 229.016ZM252.892 202.055C254.152 201.897 255.771 203.167 255.965 204.398C257.573 214.597 255.782 224.681 253.634 234.658L253.239 236.485C252.447 240.123 251.562 243.834 249.586 247.023C247.57 250.278 244.52 252.732 241.019 254.223C229.787 258.698 215.819 254.272 207.556 245.905C202.27 238.666 206.917 229.571 207.804 221.637C206.965 219.499 206.656 217.026 206.171 214.821L206.112 214.558L204.228 206.334C203.813 204.521 205.135 202.039 207.307 202.288C222.454 204.025 237.764 203.947 252.892 202.055Z" fill="white"/>
<path fill-rule="evenodd" clip-rule="evenodd" d="M305.79 226.439C305.744 226.237 305.987 226.081 306.145 226.234C308.81 228.802 310.691 232.083 312.757 235.125C314.724 238.022 316.865 240.806 318.332 244.003C319.696 246.974 320.575 249.988 320.837 253.254C321.099 256.496 320.759 259.746 320.187 262.939C319.062 269.23 316.657 275.186 314.016 280.972C311.449 286.597 308.548 292.061 305.484 297.426L304.387 299.342C303.047 301.674 301.693 304.002 300.244 306.261C298.44 309.072 296.793 311.974 294.415 314.321C292.725 315.991 289.542 314.321 290.312 311.934C290.646 310.895 290.908 309.916 291.427 308.952C291.819 308.217 292.263 307.503 292.68 306.779C293.514 305.331 294.34 303.877 295.174 302.429C296.924 299.385 298.768 296.397 300.503 293.343C303.512 288.046 306.353 282.65 308.866 277.097L309.161 276.442C311.473 271.3 313.664 265.973 314.679 260.411C315.748 254.55 314.791 249.027 312.709 243.519C311.632 240.67 310.421 237.885 309.162 235.111L308.921 234.581C307.705 231.934 306.416 229.301 305.79 226.439ZM176.391 125.071C176.416 124.967 176.592 124.959 176.608 125.071C177.356 130.047 175.691 135.312 172.978 139.451C171.498 141.712 169.672 143.754 167.521 145.394L167.353 145.521C165.155 147.164 162.186 148.75 159.457 147.685C159.372 147.652 159.292 147.615 159.217 147.573C159.524 148.048 159.807 148.548 160.096 149.048C160.954 150.536 161.724 152.078 162.56 153.58C164.057 156.266 165.84 158.668 168.093 160.771C177.102 169.179 189.753 171.178 201.633 171.082L202.473 171.074C207.691 171.038 214.516 171.304 218.545 167.527C220.71 165.499 221.902 162.615 222.979 159.908C224.037 157.254 224.762 154.515 225.641 151.816C223.805 150.558 222.121 149.021 220.798 147.225C219.419 145.354 218.377 143.249 217.775 141.001L217.687 140.665C217.222 138.873 216.754 136.502 217.503 134.809C217.588 134.614 217.909 134.627 218 134.809C218.403 135.619 218.481 136.533 218.729 137.399C219.018 138.406 219.344 139.408 219.775 140.362C220.606 142.212 221.704 143.97 223.022 145.509C224.11 146.784 225.288 147.955 226.635 148.938C227.429 147.567 229.271 147.383 230.813 147.834C232.88 148.438 234.919 149.213 236.912 150.032L237.31 150.197C239.28 151.014 241.506 151.765 243.35 152.88C244.47 153.414 245.545 153.951 246.555 154.427C251.589 156.792 256.548 159.3 261.485 161.858L262.543 162.407C264.611 163.484 266.661 164.571 268.46 166.073C270.291 167.602 271.713 169.692 273.049 171.651C276.104 176.129 278.982 180.737 282.003 185.24C288.102 194.326 294.201 203.412 300.335 212.476C301.818 214.671 303.491 216.811 304.822 219.099C306.097 221.285 306.062 223.529 305.814 225.969L305.767 226.417C305.29 230.893 304.471 235.191 301.96 239.029C298.007 245.063 291.779 248.821 285.191 251.407C285.996 252.006 286.752 252.653 287.711 253.065C289.187 253.695 290.761 254.021 292.357 254.152C294.059 254.289 295.978 253.863 297.357 255.021C297.91 255.483 297.926 256.595 297.357 257.057C296.031 258.139 294.318 257.829 292.702 257.648L292.605 257.637C291.106 257.471 289.628 257.193 288.219 256.643C287.872 256.506 287.527 256.354 287.193 256.186C287.204 256.215 287.209 256.25 287.204 256.287C286.963 258.128 286.441 259.869 285.891 261.629L285.541 262.744C284.83 265.021 284.114 267.292 283.376 269.564C281.973 273.888 280.444 278.171 278.909 282.449L277.585 286.141C276.224 289.928 274.847 293.71 273.324 297.434C272.384 299.732 271.438 302.03 270.494 304.326C269.572 306.568 268.805 308.989 267.661 311.124C266.72 312.883 264.154 311.624 264.566 309.818C265.106 307.448 266.124 305.096 266.902 302.789C267.693 300.448 268.468 298.105 269.273 295.769C270.672 291.711 272.221 287.708 273.779 283.708L275.322 279.743C276.837 275.858 278.369 271.977 280.006 268.142L280.185 267.722C281.886 263.711 283.643 259.201 286.733 256.093C286.773 256.05 286.829 256.028 286.886 256.023C286.127 255.611 285.416 255.111 284.79 254.521L284.76 254.49C284.513 254.228 283.491 252.939 283.163 252.167C282.735 252.319 282.307 252.466 281.88 252.61C281.134 252.861 280.517 252.68 280.081 252.281L279.251 252.795C278.364 253.336 277.41 253.851 276.43 253.877C275.195 253.909 274.225 253.227 273.565 252.223C272.972 251.325 272.619 250.355 271.868 249.55C271.129 248.76 270.275 248.092 269.401 247.455L268.372 246.706C266.484 245.328 264.654 243.936 263.133 242.116C262.369 241.196 261.345 240.106 260.88 239.002C260.79 238.789 260.733 238.588 260.723 238.393C260.621 239.083 260.517 239.775 260.413 240.464C258.953 250.168 257.775 259.938 257.398 269.751C257.213 274.59 257.131 279.435 257.347 284.278C257.454 286.696 257.63 289.112 257.874 291.523C257.994 292.73 258.12 293.936 258.267 295.138L258.3 295.417C258.343 295.785 258.371 296.142 258.339 296.48C259.515 297.059 260.191 298.524 260.661 299.668C261.019 300.539 260.741 301.386 260.164 301.998C260.854 302.626 261.468 303.364 261.984 304.208C262.088 304.379 261.864 304.513 261.73 304.406C260.883 303.733 259.972 303.179 259.02 302.755C258.52 302.944 257.975 302.995 257.473 302.856C256.927 302.706 256.457 302.343 256.118 301.881C253.416 301.437 250.607 301.98 248.174 303.671C247.669 304.024 247.212 304.422 246.777 304.855C246.702 304.93 246.624 305.026 246.547 305.12L247.077 305.323C247.297 305.407 247.478 305.472 247.546 305.486C248.01 305.58 248.48 305.631 248.95 305.671L249.655 305.729C252.363 305.953 255.062 306.028 257.58 307.161C258.109 307.399 257.924 308.214 257.425 308.35C255.586 308.849 253.762 308.81 251.89 308.677L251.489 308.647C249.749 308.514 247.88 308.522 246.183 308.041C246.59 309.152 246.036 310.603 244.339 310.831C239.242 311.509 234.113 311.189 229.011 310.74C223.858 310.285 218.708 309.855 213.542 309.585C196.83 308.706 180.094 308.875 163.367 309.114L153.915 309.251C146.377 309.357 138.838 309.44 131.3 309.382L127.772 309.349C126.281 309.335 124.789 309.316 123.299 309.273L122.406 309.243C120.631 309.179 118.282 309.446 116.74 308.396C115.468 307.53 115.184 305.943 115.951 304.663C116.173 304.294 116.478 303.965 116.796 303.644C117.448 298.073 117.814 292.474 118.188 286.878C119.487 267.295 118.728 247.813 115.732 228.428C107.693 230.884 99.7763 233.965 92.063 237.271C87.8909 239.059 83.7402 240.913 79.6376 242.859C75.8932 244.636 72.1327 246.857 68.1317 248.011C67.768 248.334 67.2595 248.487 66.8084 248.344L66.75 248.324H66.7473C66.3357 248.42 65.8787 248.361 65.4296 248.091C65.3388 248.036 65.2479 247.981 65.157 247.924L65.0207 247.837C63.6122 246.95 62.1957 245.857 61.1988 244.521C59.9881 245.643 58.6865 246.672 57.4062 247.714C56.0165 248.847 54.632 249.986 53.2582 251.135C52.713 251.592 52.1117 252.028 51.6306 252.554L51.5607 252.631C51.5495 252.644 51.5388 252.656 51.529 252.669C53.611 254.016 55.4338 256.06 57.0668 257.837C58.8204 259.745 60.5133 261.713 62.1924 263.688L63.8179 265.605C75.3121 279.176 86.9239 293.239 101.805 303.214C104.157 304.791 101.914 308.631 99.5785 307.02C95.1579 303.976 90.9752 300.595 86.9581 297.038C79.9183 290.809 73.584 283.821 67.6533 276.539C64.6519 272.853 61.7387 269.078 58.8842 265.277L57.9155 263.988C56.6244 262.269 55.3403 260.544 54.1108 258.781L53.8536 258.411C52.7752 256.855 51.6284 255.107 50.933 253.316C50.6657 253.586 50.3637 253.812 49.9227 253.984C49.169 254.278 48.2443 253.66 48.0599 252.925C47.6109 251.143 49.161 250.082 50.4225 249.136C51.954 247.992 53.5148 246.889 55.0783 245.79L55.6368 245.395C57.592 244.009 59.5575 242.586 61.6879 241.49C61.752 241.405 61.8295 241.325 61.9177 241.255C62.0193 241.175 62.1182 241.098 62.2198 241.02C59.6754 236.894 56.8851 232.928 53.7714 229.181C51.4301 226.362 48.9445 223.671 46.3146 221.122L45.1332 219.978C43.3461 218.252 41.488 216.502 39.5046 215.002L38.8837 215.706C38.0546 216.643 37.2173 217.574 36.3321 218.455C34.5895 220.186 32.871 221.953 31.1605 223.719C28.3198 226.658 25.5753 229.687 22.8396 232.721L21.472 234.237C18.6229 237.399 15.5707 240.502 12.9809 243.879L12.8516 244.05C11.7209 245.566 10.916 247.245 11.4414 249.171C11.9484 251.028 13.1537 252.674 14.1925 254.278L14.2958 254.438C18.5374 261.044 23.081 267.482 27.9479 273.642C37.6952 285.98 48.8136 297.674 62.0808 306.253C63.9196 307.442 62.201 310.398 60.3596 309.195C52.6115 304.131 45.4941 298.049 38.946 291.517C32.9352 285.523 27.4882 278.922 22.3834 272.148C19.8951 268.842 17.5111 265.467 15.2259 262.017C13.0103 258.668 10.4472 255.224 8.8409 251.53C7.99981 249.588 7.68898 247.485 8.37853 245.437C9.0109 243.556 10.2615 241.994 11.5625 240.524L11.6846 240.387C14.6754 237.028 17.7196 233.708 20.7905 230.421C23.8721 227.124 27.0953 223.944 30.3854 220.857C32.9699 218.428 35.664 216.287 38.5451 214.304C38.2859 214.12 38.0266 213.944 37.762 213.773C36.9575 213.249 36.7544 212.129 37.46 211.418C39.387 209.472 41.608 207.781 43.6981 206.01C45.6625 204.344 47.6269 202.677 49.5913 201.009C53.5897 197.621 57.588 194.229 61.5863 190.838C68.7678 184.748 75.9092 178.615 83.0667 172.498C86.0512 169.948 89.0635 167.429 92.0681 164.904L97.4063 160.412L100.017 158.22C101.355 157.1 102.721 155.992 104.242 155.138C107.822 153.128 112.125 152.258 116.069 151.193L116.331 151.121C120.754 149.911 125.202 148.772 129.673 147.757C134.15 146.741 138.645 145.817 143.159 144.98C147.216 144.227 151.37 143.58 155.507 143.484C156.533 143.094 157.822 142.957 158.832 143.374C159.249 143.548 159.685 143.802 160.072 144.122C162.095 143.412 164.092 143.072 165.981 141.87C167.868 140.67 169.539 139.093 170.945 137.356C173.85 133.759 175.371 129.51 176.391 125.071ZM222.899 246.875C221.295 246.763 219.852 247.426 218.419 248.131C219.227 248.481 220.034 248.829 220.841 249.173L226.213 251.466C227.988 252.223 229.867 252.88 231.553 253.812C231.673 253.879 231.77 253.96 231.842 254.053C233.595 252.931 235.45 251.929 237.227 250.862C237.633 250.619 238.042 250.376 238.451 250.133C236.334 250.841 234.164 251.196 231.866 250.531C228.8 249.646 226.138 247.102 222.899 246.875ZM227.293 241.498L227.005 241.303C225.449 240.236 223.593 238.865 221.704 239.823C220.814 240.274 220.085 241.004 219.208 241.49C218.326 241.982 217.356 242.359 216.372 242.586C214.739 242.963 212.868 243.019 211.112 242.655L211.139 245.029C212.467 245.576 213.788 246.138 215.108 246.704C215.965 246.411 216.79 246.059 217.658 245.673L218.243 245.411C219.913 244.66 221.6 244.158 223.447 244.395C226.924 244.842 229.551 247.426 232.876 248.286C236.952 249.345 240.629 246.303 244.481 245.552C245.116 245.427 245.77 245.354 246.421 245.343L246.638 245.341L246.734 245.285C247.562 244.799 248.803 244.334 249.38 243.516C250.008 242.629 250.061 241.143 250.267 240.101C250.289 239.997 250.31 239.89 250.329 239.785C249.965 239.785 249.596 239.804 249.222 239.874C248.046 240.09 246.94 240.507 245.844 240.972C243.773 241.851 241.747 242.853 239.566 243.439C237.43 244.013 235.199 244.286 232.999 243.968C230.853 243.657 229.07 242.69 227.293 241.498ZM227.627 233.155L227.305 232.948C226.456 232.406 225.482 231.844 224.441 232.044C223.511 232.223 222.712 232.963 221.902 233.42C220.125 234.422 218.131 234.97 216.097 235.109C214.405 235.224 212.649 235.018 211.021 234.515L211.078 239.77C211.674 239.959 212.291 240.095 212.94 240.144C214.913 240.29 216.837 239.817 218.492 238.73L219.329 238.174C220.761 237.233 222.105 236.487 224 236.83C225.876 237.172 227.45 238.374 228.985 239.422L229.236 239.591C230.998 240.754 232.784 241.505 234.945 241.522C237.278 241.541 239.584 240.892 241.757 240.093C243.914 239.302 245.964 238.353 248.271 238.062C248.976 237.974 249.837 237.947 250.647 238.086C250.754 237.49 250.855 236.897 250.951 236.301C251.16 235.021 251.339 233.743 251.494 232.463C247.402 231.362 243.623 234.924 239.822 236.023C237.617 236.659 235.217 236.651 233.012 236.036C230.972 235.467 229.368 234.285 227.627 233.155ZM227.638 224.307C226.764 224.139 225.9 224.542 225.157 224.956C223.262 226.007 221.627 227.468 219.481 228.022C216.72 228.732 213.699 228.12 210.957 226.958C210.968 228.58 210.981 230.202 210.995 231.824C211.511 232.02 212.04 232.177 212.58 232.303C214.499 232.741 216.533 232.682 218.422 232.129C220.349 231.565 221.827 230.042 223.759 229.566C225.735 229.078 227.598 230.028 229.19 231.107L229.67 231.434C231.49 232.669 233.255 233.742 235.533 233.952C237.941 234.173 240.033 233.42 242.185 232.421L242.686 232.189C245.41 230.938 248.946 229.514 251.665 230.937C251.879 228.917 252.034 226.897 252.138 224.874C251.764 224.735 251.376 224.633 250.93 224.63C249.864 224.625 248.744 224.962 247.749 225.312C245.577 226.079 243.553 227.222 241.402 228.043C239.363 228.823 237.104 229.23 234.929 228.88C232.913 228.556 231.401 227.503 230.008 226.06L229.806 225.847C229.195 225.197 228.542 224.483 227.638 224.307ZM229.233 216.806C228.226 216.274 226.999 215.779 225.833 215.934C224.722 216.081 223.981 216.835 223.296 217.641L222.925 218.083C221.7 219.532 220.495 220.75 218.607 221.346C216.65 221.961 214.576 221.72 212.756 220.82C212.109 220.499 211.508 220.101 210.904 219.708L210.936 223.97C212.144 224.571 213.373 225.114 214.723 225.443C217.214 226.049 219.331 225.6 221.461 224.227L221.685 224.081C223.289 223.028 224.934 221.773 226.916 221.656C228.85 221.54 230.301 222.612 231.575 223.924L231.724 224.08C233.33 225.774 234.953 226.6 237.342 226.405C239.659 226.215 241.827 225.193 243.949 224.312L244.141 224.232C246.082 223.436 248.319 222.615 250.449 222.92C250.959 222.992 251.62 223.15 252.208 223.425C252.293 221.431 252.333 219.435 252.341 217.436C251.13 216.386 249.246 216.212 247.731 216.643C245.357 217.316 243.414 219.053 241.148 219.996C239.138 220.833 237.043 221.02 234.993 220.229C232.876 219.411 231.216 217.853 229.233 216.806ZM252.208 208.409C248.661 208.532 245.192 210.838 241.805 211.717C238.023 212.699 234.935 211.361 231.566 209.876L231.131 209.684C229.402 208.925 227.544 208.243 225.628 208.553C223.759 208.858 222.108 209.892 220.501 210.828L220.194 211.005C217.267 212.67 214.288 213.811 210.872 213.526C210.891 214.598 210.882 215.667 210.885 216.715C211.446 217.035 211.986 217.399 212.499 217.73L212.684 217.847C214.312 218.865 215.991 219.535 217.933 218.906C219.809 218.297 220.691 216.664 221.979 215.32C223.163 214.085 224.708 213.335 226.44 213.406C228.303 213.481 230.064 214.302 231.604 215.304C233.143 216.306 234.632 217.602 236.433 218.104C240.474 219.227 243.936 214.954 247.758 214.288C249.361 214.008 251.13 214.363 252.341 215.33C252.328 213.027 252.277 210.718 252.208 208.409ZM221.68 207.442C221.18 207.46 220.681 207.482 220.181 207.503C218.331 207.583 216.482 207.674 214.632 207.778C213.352 207.848 211.778 208.241 210.522 207.851C210.49 207.979 210.447 208.102 210.391 208.222C210.58 209.168 210.698 210.146 210.77 211.135C211.93 211.26 213.109 211.218 214.253 210.98C216.998 210.411 219.227 208.679 221.68 207.442ZM252.154 206.648C245.4 207.113 238.595 206.953 231.83 207.099L231.018 207.118C230.986 207.118 230.954 207.121 230.922 207.121C231.698 207.422 232.468 207.766 233.235 208.117L234.001 208.468C235.813 209.302 237.657 209.983 239.686 209.836C241.859 209.678 243.906 208.791 245.937 208.075C247.875 207.391 250.107 206.931 252.173 207.231C252.167 207.035 252.162 206.843 252.154 206.648Z" fill="#111111"/>
<path fill-rule="evenodd" clip-rule="evenodd" d="M241.714 71.0696C241.409 65.2217 241.141 59.1791 240.019 53.4207C239.469 50.5979 238.37 47.9918 236.591 45.7259C234.964 43.6524 232.916 42.0442 230.839 40.4469C226.664 37.2365 222.65 33.6823 217.977 31.1991C213.493 28.8164 208.646 27.3782 203.622 26.7322C193.948 25.4883 183.786 27.5588 175.385 32.5265C167.236 37.3453 160.685 44.8234 156.631 53.3491C154.617 57.5859 153.103 62.0573 152.288 66.6813C151.317 72.1933 151.405 77.7209 151.44 83.2947C151.452 85.168 151.435 87.0403 151.342 88.909C151.189 89.8161 151.106 90.7345 151.107 91.719C149.262 94.1458 148.512 97.3893 149.668 100.377C151.512 105.144 156.743 107.312 161.493 106.48C161.706 107.719 162.218 108.94 162.856 110.128C163.947 112.16 165.166 114.149 166.46 116.056C169.137 120.002 172.193 123.58 175.838 126.666C183.064 132.784 192.218 136.793 201.711 137.373C210.354 137.901 219.469 135.444 226.517 130.375C230.175 127.744 233.341 124.52 235.693 120.658C238.441 116.148 239.932 110.956 240.705 105.765C242.404 94.3698 242.313 82.5493 241.714 71.0696Z" fill="white"/>
<path fill-rule="evenodd" clip-rule="evenodd" d="M173.563 10.6363C173.236 6.9559 176.629 4.18679 179.777 5.21752C180.354 5.28941 180.916 5.47167 181.418 5.77819C182.867 6.66301 183.184 8.09006 182.805 9.32363C183.485 9.83699 184.021 10.5329 184.291 11.3723C184.568 12.237 184.539 13.0759 184.278 13.8068C185.266 14.4591 186.012 15.4434 186.186 16.6628C186.268 17.2419 186.235 17.8162 186.097 18.344C187.592 18.8514 188.813 19.9883 188.794 21.7085C189.662 21.7641 190.532 21.7764 191.417 21.7272C191.543 21.371 191.698 21.0235 191.927 20.7037C192.391 20.0593 193.049 19.6166 193.778 19.3405L193.878 19.3039L193.877 19.1083C193.318 18.4896 193.057 17.7093 193.652 16.8595C193.754 16.7138 193.878 16.5936 194.017 16.4904C194.066 16.1216 194.146 15.7566 194.243 15.3977C193.751 14.7109 193.804 13.5714 194.631 13.2304C194.515 12.5607 194.509 11.8661 194.633 11.1662C195.143 8.29877 197.911 6.3458 200.763 6.45537C201.12 6.469 201.468 6.52271 201.803 6.60823C202.498 6.68092 203.189 6.83618 203.868 7.06707C204.652 7.33378 204.854 7.98851 204.681 8.54196C205.746 9.96553 206.048 11.8995 204.976 13.6376C204.935 13.7036 204.89 13.7664 204.846 13.8298C205.061 13.9915 205.248 14.2047 205.387 14.4786C205.737 15.1681 205.65 16.043 205.118 16.6184C204.976 16.7718 204.793 16.887 204.592 16.961L204.589 17.0177C204.519 17.941 204.372 18.8667 204.095 19.7387C205.224 20.787 205.974 22.2138 206.107 23.7512C206.527 23.7903 206.948 23.836 207.368 23.8835C207.43 23.4621 207.685 23.0826 208.074 22.7887C208.398 22.5428 208.745 22.3461 209.101 22.1989C209.272 21.3151 209.692 20.4685 210.401 19.7967C210.664 19.5476 210.951 19.3279 211.257 19.139C211.24 18.1809 211.454 17.2237 211.985 16.3172C212.426 15.5634 213.069 15.0166 213.802 14.6686C214.336 13.5943 215.326 12.7178 216.766 12.2197C217.843 11.8476 218.982 12.2898 219.8 12.9851L219.983 13.1454C220.734 13.8079 221.005 15.0251 220.728 15.9642C220.598 16.4054 220.381 16.9209 220.065 17.3397C220.399 18.8087 219.735 20.0342 218.72 20.7229C219.067 21.2168 219.359 21.7646 219.605 22.3496C220.031 23.3611 219.552 24.6206 218.784 25.4175C219.12 25.9535 219.339 26.5789 219.419 27.2069C219.761 27.2269 220.102 27.2879 220.438 27.3833C220.62 26.7654 220.962 26.1911 221.486 25.7221C221.715 25.274 221.988 24.8568 222.293 24.492C222.774 23.9164 223.396 23.5016 224.076 23.3327C224.167 23.1192 224.295 22.9148 224.456 22.728C224.293 20.8552 225.535 18.9215 227.446 18.9199C227.581 18.4832 227.746 18.0513 227.944 17.6278C228.331 16.7969 229.152 16.2993 230.042 16.1358C230.565 14.8621 231.592 13.9359 233.355 13.7814C237.292 13.4367 239.769 18.2106 238.808 21.6382C238.522 22.6564 237.852 23.5933 236.964 24.1687C236.731 24.3191 236.497 24.4284 236.26 24.5187C236.023 24.8499 235.703 25.1441 235.293 25.3838C235.202 25.437 235.109 25.4848 235.013 25.5276C235.022 27.0572 233.966 28.3012 232.655 28.697C232.739 29.6615 232.493 30.6283 231.76 31.3755L231.708 31.4257L231.601 31.5212L231.593 31.5634C231.853 32.2347 231.826 32.9741 231.452 33.5826C231.485 34.1417 231.584 34.6882 231.772 35.2077C232.495 35.7932 233.134 36.4659 233.705 37.196C234.087 36.8507 234.662 36.6949 235.16 36.8836C235.299 36.8365 235.441 36.8061 235.577 36.7924C235.804 36.7694 236.027 36.7702 236.246 36.7863C236.347 36.6396 236.462 36.5001 236.595 36.3694C237.525 35.4504 238.874 35.4693 239.945 36.0402C240.137 35.9004 240.353 35.7769 240.598 35.6735C243.329 34.5225 245.119 37.9872 245.385 40.1468C245.53 41.325 244.516 42.0517 243.475 42.1129C243.264 42.8272 242.585 43.3413 241.827 43.5159C241.961 44.3983 241.376 45.2989 240.579 45.6345C240.223 45.7844 239.879 45.8253 239.555 45.7818L239.571 45.9907C239.633 46.8194 239.214 47.347 238.64 47.5808C238.539 47.9913 238.259 48.289 237.908 48.4416C239.249 51.5479 240.308 54.8024 241.162 58.0121C242.571 63.3109 243.519 68.7062 244.155 74.1503C245.273 83.7209 245.317 93.4882 244.197 103.063C243.628 107.935 242.681 112.697 240.745 117.222C239.13 120.997 236.884 124.272 234.298 127.442C229.162 133.737 221.81 138.374 213.707 139.526C209.454 140.131 205.092 139.934 200.941 138.776C196.808 137.622 192.402 135.644 189.798 132.13C189.093 131.179 189.436 129.636 190.221 128.851C191.117 127.956 192.407 127.898 193.5 128.428C195.441 129.369 197.186 130.655 199.158 131.553C200.939 132.364 202.864 132.883 204.781 133.249C208.578 133.976 212.707 133.79 216.492 132.777C223.357 130.94 229.406 126.507 233.246 120.53C237.782 113.468 239.401 105.192 240.143 96.9449C240.954 87.9181 240.869 78.7674 239.793 69.7663C239.259 65.3027 238.438 60.8791 237.466 56.4918C236.774 53.3681 235.994 50.2652 235.259 47.1522C234.593 46.5164 233.949 45.8598 233.328 45.1794L233.309 45.1781C233.23 45.1976 233.149 45.2123 233.061 45.219C229.374 45.5001 225.378 45.13 222.233 43.0054C220.954 42.142 219.873 41.049 219.068 39.7906C217.938 39.0073 216.908 38.019 216.135 36.8771C215.586 36.2753 215.066 35.6465 214.572 34.9947C213.342 33.3704 212.688 31.6657 211.954 29.7916C211.937 29.7486 211.926 29.7064 211.918 29.6649C211.777 29.4354 211.678 29.1839 211.63 28.93C209.993 28.7358 208.349 28.6069 206.722 28.5294C206.146 28.5022 205.568 28.4805 204.99 28.4618C205.142 29.0265 205.233 29.6123 205.253 30.2138C205.719 30.2347 206.195 30.2889 206.682 30.3667C208.966 30.7304 210.431 31.8998 211.818 33.7323C213.168 35.5158 214.245 37.6609 215.044 39.7473C215.535 41.0247 214.881 42.4367 213.806 43.259C211.015 43.4961 208.273 44.0958 205.704 45.2839C205.614 45.3259 205.548 45.3993 205.505 45.4859C203.454 46.0968 201.388 46.6556 199.323 47.13C197.329 47.588 195.316 47.7786 193.312 47.2732C192.45 47.056 191.607 46.7342 190.779 46.3734C190.333 46.4274 189.851 46.3424 189.361 46.0613C188.618 45.6361 187.871 45.1711 187.136 44.6708C185.836 44.0477 184.558 43.3782 183.337 42.6131L183.33 42.6038C182.356 41.4228 180.967 40.2197 179.412 39.3087C179.24 39.046 179.089 38.7697 178.967 38.4744C178.298 36.8472 178.578 34.879 179.989 33.7598C180.01 33.3737 180.178 32.9955 180.55 32.6922C180.846 32.452 181.149 32.2237 181.461 32.0062C181.396 31.9578 181.33 31.9111 181.265 31.8616C181.137 31.7646 181.014 31.6601 180.893 31.5524C179.951 32.0687 179.001 32.5741 178.029 33.0241C178.004 33.042 177.981 33.061 177.955 33.0778C176.127 34.2775 174.397 35.6553 172.547 36.8114C172.103 37.088 171.662 37.3563 171.224 37.6254C171.06 37.8496 170.899 38.077 170.744 38.3087C170.678 38.6652 170.577 39.0212 170.452 39.3678C170.694 39.5605 170.891 39.8143 171.025 40.1153C171.6 40.3341 172.141 40.6118 172.646 40.9429L173.094 41.1414C173.669 40.6802 174.277 40.2633 174.931 39.9167C176.981 40.0498 179.196 41.5022 180.754 42.983C180.863 43.1059 180.97 43.2299 181.072 43.3558C181.17 43.4354 181.27 43.5201 181.369 43.6032C181.53 43.7767 181.68 43.9482 181.818 44.1153C181.973 44.3031 182.148 44.4066 182.325 44.4498C183.28 45.3456 184.174 46.3536 184.785 47.401C185.767 49.0824 185.079 51.1784 184.36 52.8283C184.243 53.0977 184.119 53.3628 183.989 53.6249C182.615 55.4761 181.312 57.3791 180.01 59.2826C179.132 60.1305 178.261 60.9838 177.427 61.8711C177.291 61.9625 177.147 62.0501 176.989 62.1313C174.564 63.3797 172.217 61.9744 169.906 61.0993L169.648 61.0038C167.266 60.1427 164.302 59.5768 164.151 56.4758C164.131 56.0533 164.147 55.6204 164.189 55.1826C164.775 53.6289 165.447 52.1038 166.196 50.6182C166.045 50.4549 165.91 50.274 165.796 50.0723C165.554 49.7665 165.352 49.4368 165.199 49.0888C164.093 51.2069 163.039 53.4787 161.617 55.3371C160.834 56.3614 159.857 56.7305 158.822 56.7281C158.385 56.9485 157.895 57.0226 157.425 56.967L157.474 57.5339C157.518 58.0066 157.568 58.4789 157.641 58.9424C158.642 58.9261 159.689 59.2006 160.622 59.5696C163.36 60.6522 165.999 62.1514 168.641 63.451C169.916 64.0784 171.669 64.6044 172.711 65.5843C173.51 66.3361 173.418 67.2671 173.115 68.2356C173.063 68.4007 173.006 68.5645 172.952 68.7289L172.949 68.7826C172.097 69.8556 171.514 71.1359 171.09 72.4577C170.399 73.6335 169.916 74.9531 169.587 76.2463C169.321 77.297 169.132 78.3692 169.008 79.4514L168.976 79.7468L168.959 79.7816L168.95 80.0368C168.774 81.9425 168.795 83.8722 168.954 85.7624C168.998 86.2885 169.053 86.8155 169.122 87.3406C168.824 88.272 167.411 88.4016 166.678 87.8302C165.872 87.2014 165.025 86.6298 164.145 86.114C162.946 86.6603 161.559 86.7535 160.22 86.3059C160.124 86.2741 160.033 86.2356 159.941 86.1993C158.937 86.3238 157.943 86.5579 156.991 86.835L156.706 86.9194C155.188 87.3761 153.741 87.9474 152.598 89.1074C150.568 91.168 149.914 94.4986 150.328 97.287C150.731 99.9997 152.305 103.1 155.142 103.889C156.303 104.211 157.554 104.202 158.682 103.751C159.111 103.58 159.478 103.331 159.84 103.059C160.285 102.724 160.635 102.348 161.163 102.136C161.644 101.943 162.475 101.958 162.71 101.947C163.444 101.911 164.065 102.486 164.281 103.142C164.939 105.147 163.95 106.619 162.361 107.605C163.03 108.616 163.656 109.673 164.318 110.629C165.555 112.416 166.86 114.142 168.213 115.84C169.602 117.585 171.083 119.245 172.697 120.784C173.426 121.479 174.177 122.151 174.95 122.796L175.376 123.149C176.098 123.752 176.729 124.365 176.704 125.416C176.69 126.005 176.299 126.552 175.72 126.708C173.671 127.263 171.524 124.577 170.189 123.2L170.084 123.092C168.469 121.459 166.967 119.703 165.608 117.85C164.208 115.94 163.061 113.831 162.137 111.654C161.707 110.643 161.241 109.487 160.911 108.318C159.131 109.008 157.063 109.255 155.648 109.092C154.342 108.943 153.15 108.568 152.073 108.021C151.853 108.514 151.557 108.973 151.197 109.355C149.863 110.77 147.921 111.174 146.04 111.157C143.632 111.135 141.47 109.616 141.383 107.054C141.326 105.393 142.187 103.968 143.443 102.996C143.908 101.846 144.793 100.899 146.074 100.591C145.226 97.97 145.077 95.0817 145.714 92.4353C146.345 89.8153 147.785 87.3335 149.914 85.6985L150.035 85.6068L149.984 85.6341C149.481 85.9112 148.99 86.2102 148.493 86.4967L148.269 86.6242C146.059 87.872 143.499 88.9439 140.925 88.2765C136.841 87.2172 136.487 82.1234 140.002 80.113C141.216 79.4181 142.619 79.156 144.005 78.9823C144.224 78.6969 144.484 78.4419 144.771 78.2356C144.814 77.2995 145.285 76.3636 146.118 75.7757C146.968 75.176 147.922 75.1167 148.81 75.3919C149.141 75.1434 149.5 74.9259 149.895 74.7559C150.238 74.6079 150.585 74.5004 150.933 74.4261C150.927 74.1466 150.924 73.8671 150.92 73.5873C150.864 73.3267 150.83 73.0536 150.795 72.7695C150.732 72.7588 150.669 72.7487 150.607 72.7353C149.702 72.5376 148.884 72.1316 148.173 71.5843C147.034 72.3035 145.653 72.5755 144.01 72.0891C142.484 71.6375 141.047 70.2185 140.336 68.5881C139.362 68.3922 138.416 68.1076 137.588 67.5678C136.054 67.9323 134.401 67.3427 133.78 65.7554C133.319 64.5784 133.873 63.1557 134.861 62.4261C135.149 62.2137 135.461 62.2535 135.708 62.4178C135.767 62.2267 135.835 62.0375 135.92 61.8526C135.954 61.7781 135.991 61.7054 136.028 61.6329C135.991 60.0739 136.557 58.5667 137.972 57.7302C139.023 57.1094 140.276 57.0418 141.405 57.4004C142.026 56.8224 142.811 56.3809 143.787 56.1385C145.503 55.712 147.309 56.1984 148.531 57.4852C148.795 57.4074 149.069 57.3521 149.349 57.3171C149.451 56.5993 149.695 55.909 150.205 55.3702C150.57 54.9835 151.008 54.6757 151.483 54.4598C151.699 53.6466 152.053 52.9186 152.647 52.3093C152.357 52.0642 152.093 51.7885 151.868 51.4817C151.619 51.44 151.371 51.3863 151.129 51.3088C149.838 50.8943 148.948 50.0808 148.345 49.0669C147.227 49.3531 146.043 49.2484 144.879 48.5185C144.038 47.9907 143.404 47.1468 143.069 46.204L142.114 45.8691C141.213 45.5506 140.567 44.9557 140.198 44.2478C139.729 44.4164 139.212 44.4103 138.791 44.0853C136.325 42.1815 138.009 39.0271 140.65 38.4007C141.724 38.146 142.662 38.2911 143.496 38.6794C144.089 38.1078 144.833 37.6786 145.685 37.4851C146.678 37.2596 147.725 37.425 148.642 37.8632L148.879 37.86C149.802 37.1746 150.987 36.8675 152.435 37.1986C154.074 37.5736 155.191 38.491 155.949 39.6858C156.192 39.4659 156.466 39.2721 156.765 39.1094C157.613 38.6481 158.518 38.5343 159.386 38.6786C159.678 38.2628 159.977 37.8526 160.285 37.4496C159.553 36.8774 159.052 35.9899 159.025 35.0051C158.804 34.8672 158.59 34.7104 158.385 34.5661C157.382 33.8598 156.531 32.9741 156.145 31.7836C155.952 31.1898 155.881 30.5709 155.904 29.9503C155.796 29.9268 155.688 29.9017 155.582 29.8712C151.319 28.6452 149.552 22.7705 152.921 19.6176C154.69 17.9618 157.38 18.8995 159.13 20.1222C160.323 20.9559 161.271 21.9926 162.13 23.1379C162.17 23.1462 162.21 23.1489 162.25 23.1588C163.484 23.4503 164.465 24.2416 165.19 25.2534C166.47 25.031 167.833 25.2782 169.047 26.1668C169.933 26.8146 170.489 27.6163 170.778 28.4875C171.928 27.8873 173.112 27.3611 174.322 26.8964C174.401 26.7058 174.484 26.515 174.58 26.3255C174.766 25.9576 175.01 25.6377 175.292 25.3672C174.985 25.023 174.712 24.6385 174.493 24.2106C173.451 22.1812 173.827 20.1272 174.978 18.5732C174.475 17.4402 174.32 16.1553 174.618 14.9329C174.673 14.7061 174.743 14.488 174.825 14.2782C174.126 13.1898 173.679 11.9369 173.563 10.6363ZM154.871 92.729C155.61 92.5492 155.784 92.3135 156.615 92.3813C157.258 92.434 157.916 92.5441 158.54 92.7055C160.028 93.0909 161.417 93.8696 162.64 94.7865C164.375 96.0871 162.298 98.5042 160.917 97.1172L160.875 97.074C159.947 96.0788 158.905 95.3014 157.738 94.6082C157.146 94.2571 156.536 94.0035 155.918 93.7082C155.49 93.5043 155.243 93.1705 154.841 92.958C154.746 92.9078 154.769 92.7541 154.871 92.729ZM158.849 73.1413C158.44 72.9972 157.972 73.3048 157.862 73.7011C157.745 74.1281 157.994 74.5144 158.379 74.6708L158.422 74.6872C158.946 74.8718 159.423 75.1786 159.83 75.5541L159.916 75.6357C160.657 76.3551 161.792 75.2225 161.05 74.5018C160.421 73.8906 159.675 73.4325 158.849 73.1413ZM178.033 43.9555C177.611 43.0324 176.264 43.8074 176.629 44.7217L176.648 44.7647C177.028 45.5959 176.872 46.5606 176.458 47.3437L176.417 47.4189C175.913 48.3205 177.298 49.13 177.802 48.2281C178.549 46.8897 178.673 45.3574 178.033 43.9555ZM189.678 32.4639L189.659 32.3715C189.469 31.3584 187.924 31.7873 188.113 32.7975C188.428 34.4771 189.648 35.5805 191.213 36.1283C192.189 36.4699 192.609 34.9215 191.639 34.5821C190.602 34.2191 189.909 33.5313 189.678 32.4639ZM214.948 30.8416L214.676 30.8298L214.883 31.1035C214.903 31.0156 214.924 30.9282 214.948 30.8416Z" fill="#111111"/>
<path fill-rule="evenodd" clip-rule="evenodd" d="M214.566 108.884C217.057 107.992 219.702 108.327 222.215 109.254L222.441 109.339C224.749 110.219 227.571 111.747 228.515 114.135C228.702 114.608 228.79 115.092 228.802 115.574C229.11 115.604 229.417 115.645 229.72 115.698C230.344 115.808 230.315 116.8 229.72 116.93C229.343 117.013 228.959 117.073 228.572 117.118C228.214 118.231 227.473 119.242 226.537 119.951C224.346 121.609 221.326 121.922 218.677 122.175C215.749 122.456 212.805 122.387 209.887 122.033L208.86 121.901C206.47 121.591 203.806 121.192 201.774 119.913C199.862 118.711 198.554 116.388 199.364 114.132C200.192 111.822 203.033 110.842 205.142 110.1C208.172 109.035 211.396 108.617 214.566 108.884ZM210.339 116.626C210.368 117.301 210.394 117.976 210.42 118.652C210.428 118.859 210.369 119.046 210.267 119.208C211.716 119.378 213.178 119.458 214.636 119.457C214.37 118.651 214.355 117.726 214.34 116.866C213.005 116.801 211.672 116.723 210.339 116.626ZM215.704 116.929L215.821 117.366C216.001 118.049 216.164 118.753 216.14 119.428C216.82 119.402 217.497 119.362 218.171 119.303L219.031 119.23C219.226 119.213 219.424 119.196 219.623 119.177C219.667 118.477 219.75 117.768 219.823 117.069C218.45 117.031 217.077 116.987 215.704 116.929ZM221.151 117.099C221.214 117.717 221.272 118.349 221.297 118.975C222.4 118.804 223.482 118.536 224.407 118.063C224.872 117.825 225.245 117.538 225.523 117.219C224.589 117.197 223.658 117.15 222.754 117.135C222.576 117.133 222.398 117.129 222.22 117.125L221.151 117.099ZM201.987 115.677C202.059 116.967 204.099 117.888 205.149 118.191C206.151 118.48 207.171 118.715 208.201 118.901C208.181 118.815 208.172 118.73 208.179 118.652C208.244 117.924 208.309 117.196 208.377 116.469L207.824 116.425C205.881 116.276 203.86 116.156 201.987 115.677ZM214.715 110.762C214.878 112.378 215.105 113.986 215.407 115.581L215.96 115.593C217.287 115.614 218.615 115.623 219.943 115.624C219.946 115.559 219.95 115.494 219.952 115.43C220.002 114.08 219.983 112.729 219.933 111.38C218.247 111.008 216.481 110.886 214.715 110.762ZM220.626 111.549C220.774 112.905 220.897 114.262 221.009 115.621L222.173 115.619C222.367 115.619 222.56 115.618 222.754 115.616C223.844 115.606 224.964 115.535 226.082 115.505C225.998 114.921 225.655 114.328 225.021 113.787C223.681 112.645 222.194 111.97 220.626 111.549ZM213.678 110.452C212.396 110.589 211.124 110.814 209.87 111.129C210.197 112.078 210.135 113.164 210.204 114.155C210.235 114.592 210.26 115.029 210.283 115.465C211.624 115.498 212.965 115.529 214.306 115.558C214.263 113.951 214.291 112.344 214.382 110.739L214.235 110.728C214.018 110.713 213.825 110.604 213.678 110.452ZM209.02 111.357C208.434 111.525 207.852 111.711 207.277 111.919L206.648 112.146C205.134 112.698 203.13 113.497 202.286 114.731C202.144 114.938 202.058 115.139 202.016 115.333C204.139 115.137 206.341 115.334 208.483 115.415C208.512 115.135 208.542 114.855 208.574 114.575L208.623 114.155C208.733 113.249 208.732 112.243 209.02 111.357ZM219.626 91.9504C221.644 93.177 224.719 96.0373 222.548 99.0782C219.993 101.76 216.313 98.6852 214.5 97.2948C212.818 96.2173 210.929 98.9887 212.489 100.247C225.592 109.946 230.909 92.2711 220.647 90.5081C219.517 90.3139 219.097 91.5709 219.626 91.9504ZM194.888 77.0774C197.756 72.0935 204.852 72.036 208.912 75.842C212.788 79.4762 213.267 85.6763 210.171 89.9265C206.872 94.4561 200.462 95.7092 195.265 94.0948C190.393 92.5815 187.774 87.2958 189.444 82.4529C190.347 79.8335 192.426 78.0224 194.888 77.0774ZM192.216 68.7295C194.64 66.5842 199.044 64.5123 202.313 65.5681C204.192 66.175 205.011 69.2026 202.913 70.1622C200.484 71.2734 197.683 70.8212 195.211 71.973C194.172 72.457 193.196 73.0617 192.473 73.9487C191.903 74.6478 191.324 75.5676 190.5 75.9706C190.284 76.0767 189.99 76.0794 189.817 75.8827C188.011 73.8405 190.639 70.1248 192.216 68.7295ZM226.839 65.4616C228.337 65.0413 229.999 65.0498 231.521 65.3139C233.042 65.5779 234.586 66.2083 235.828 67.1279L235.973 67.2355C237.329 68.2571 238.947 69.7435 238.86 71.5533C238.787 73.0645 237.197 74.0867 235.825 73.2946C234.706 72.6487 234.179 71.3548 233.232 70.4932C232.45 69.7821 231.532 69.2214 230.552 68.8286C229.463 68.3922 228.373 68.1877 227.205 68.1682C226.306 68.1533 225.401 68.4483 224.519 68.5426C224.591 68.6917 223.894 68.6223 223.494 68.49C223.198 68.3638 223.196 67.9894 223.299 67.7465C223.808 66.5431 225.661 65.7919 226.839 65.4616ZM228.47 73.9181C230.979 73.42 233.769 73.9654 235.869 75.4363C239.635 78.0736 241.324 83.528 239.574 87.7939C237.838 92.0277 233.091 94.7212 228.564 93.9123C223.943 93.0865 220.369 88.4339 220.867 83.7466C221.079 81.7511 221.95 79.9526 223.238 78.5932C223.248 78.5464 223.259 78.4991 223.277 78.4504C224.183 76.0408 225.899 74.4288 228.47 73.9181ZM205.507 77.7501C202.63 76.0184 198.4 76.9852 195.929 79.0758C195.438 79.4911 194.884 79.3695 194.583 79.0072C192.906 80.361 191.721 82.2549 191.531 84.5611C191.19 88.6977 194.136 91.4182 198.106 91.7311C202.163 92.051 206.361 90.919 208.271 87.0326C209.921 83.6774 208.71 79.6777 205.507 77.7501ZM232.745 77.9291C230.492 77.0458 227.261 77.5678 225.294 79.0793C223.796 81.0098 223.067 83.6586 223.643 85.8281C224.475 88.9612 227.482 91.4018 230.785 91.0547C233.842 90.7335 236.604 88.2867 236.932 85.18C237.248 82.192 235.608 79.0515 232.745 77.9291ZM230.833 82.6176C231.347 82.2514 231.959 82.6638 232.147 83.152L232.255 83.3733C232.311 83.4917 232.37 83.6141 232.372 83.6186L232.392 83.6777C232.419 83.7287 232.452 83.7763 232.483 83.8247C232.507 83.8412 232.707 84.0911 232.734 84.1237C233.056 84.5214 233.227 84.8851 233.216 85.4083C233.197 86.4428 232.232 87.1713 231.231 86.9209C230.154 86.6515 229.696 85.5382 229.794 84.516C229.872 83.7068 230.166 83.093 230.833 82.6176ZM201.605 82.8152C202.08 82.3833 202.813 82.347 203.282 82.8152C203.539 83.0722 203.643 83.3587 203.828 83.6578L203.915 83.7951C204.108 84.0902 204.309 84.3735 204.36 84.7355C204.483 85.5877 204.218 86.3809 203.379 86.7355C202.543 87.0877 201.77 86.7275 201.261 86.0418C200.659 85.2294 200.842 83.5084 201.605 82.8152Z" fill="#111111"/>
</svg>
