<svg width="315" height="344" viewBox="0 0 315 344" fill="none" xmlns="http://www.w3.org/2000/svg">
<path fill-rule="evenodd" clip-rule="evenodd" d="M194.915 20.0383C193.21 19.7822 191.922 20.8401 191.309 22.3311L191.277 22.4114C191.08 22.9188 190.861 23.4122 190.626 23.8974C186.358 21.8043 180.269 22.3421 177.568 26.581C175.848 29.2825 176.599 32.4342 177.297 35.3627C177.381 35.716 177.465 36.0661 177.543 36.4118L178.02 38.527C177.098 39.1136 176.403 40.164 176.436 41.2517L176.44 41.3354L176.634 44.2852C176.018 43.6614 175.455 42.9822 174.953 42.2586C174.607 41.6237 174.232 40.9999 173.83 40.3956C171.465 36.8387 166.155 39.9298 168.107 43.739C168.481 44.4737 168.903 45.1696 169.355 45.8405C169.865 46.8302 170.284 47.8477 170.605 48.8928C169.682 49.2948 168.972 50.1875 168.897 51.5349C168.723 54.6815 170.375 57.3069 173.004 58.9564C173.778 59.4416 174.576 59.5358 175.3 59.3557C175.427 59.5275 175.555 59.6994 175.677 59.8741C174.629 60.7252 173.683 61.6955 172.871 62.7712C170.425 62.4052 167.966 62.2333 165.506 62.2278C162.5 60.7557 158.901 60.7861 155.671 61.3378C154.354 61.5624 153.072 61.9214 151.788 62.2805C151.044 62.4888 150.299 62.6971 149.548 62.8793C148.253 63.1921 146.946 63.3242 145.636 63.4566C144.764 63.5446 143.89 63.6329 143.018 63.7747C140.267 64.2211 137.855 65.4909 136.338 67.5174C134.672 67.5673 132.919 68.2493 131.466 69.1753C129.287 70.5643 127.117 71.9661 124.946 73.3679C123.746 74.1427 122.546 74.9176 121.345 75.6903C120.05 76.5236 119.566 77.8541 119.804 79.338L119.82 79.4329L119.934 80.0484L119.667 80.4272C119.602 80.5184 119.537 80.6099 119.472 80.7017L119.432 80.7581C118.467 82.116 117.46 83.5339 116.842 85.022C115.605 86.8046 114.488 88.6732 113.498 90.5999C112.164 93.1893 111.063 95.9339 110.317 98.7506C110.131 99.4631 109.946 100.181 109.824 100.907C109.692 101.683 109.813 102.326 109.944 103.019C109.986 103.243 110.029 103.472 110.065 103.713C110.152 104.31 110.213 104.91 110.274 105.511C110.341 106.167 110.407 106.823 110.509 107.475C110.639 108.304 111.343 108.712 112.081 108.734C111.804 110.844 111.604 112.967 111.413 115.074C111.144 118.085 110.961 121.104 110.802 124.123C109.987 125.307 108.321 126.244 107.117 126.568C105.451 127.015 103.704 126.529 102.129 125.961C101.139 125.604 100.327 126.848 100.809 127.68C102.326 130.292 105.57 130.28 108.027 129.124C109.067 128.636 109.979 127.93 110.656 127.009C110.642 127.289 110.629 127.57 110.615 127.85L110.604 128.078C110.578 128.598 110.552 129.119 110.525 129.64L110.484 130.436C110.401 131.982 110.302 133.538 110.202 135.098V135.099C109.704 142.921 109.196 150.88 110.653 158.553C112.815 169.949 120.175 179.403 130.084 184.212C129.668 185.475 129.227 186.731 128.58 187.925C128.134 188.747 127.628 189.532 127.066 190.278C126.857 190.403 126.64 190.524 126.414 190.639C125.2 190.87 121.951 191.426 121.951 191.426C116.011 191.423 110.418 193.705 105.163 196.555C102.057 198.24 99.0048 200.032 95.9611 201.826L90.0123 205.335C89.949 205.372 89.8845 205.409 89.8191 205.446C89.7246 205.499 89.628 205.553 89.53 205.606C89.3758 205.69 89.2178 205.774 89.0581 205.859C88.9041 205.941 88.7484 206.024 88.5927 206.108C89.1666 203.275 89.4467 200.386 89.2581 197.522C88.9725 193.203 87.2922 188.479 82.8417 186.94C80.7371 186.211 78.3024 186.435 76.2589 187.245C75.5111 187.542 74.7111 187.915 73.9749 188.388C73.8445 188.323 73.7144 188.257 73.5844 188.189C73.4767 188.132 73.369 188.075 73.2613 188.017L73.1325 187.947C72.4484 186.456 70.9294 185.345 69.4042 184.808C68.822 184.603 68.2258 184.473 67.6213 184.409C67.639 184.103 67.6408 183.793 67.6365 183.474L67.6324 183.233C67.6047 181.82 67.6157 180.406 67.6462 178.995C67.7017 176.319 67.8292 173.699 68.101 171.032C68.2421 169.659 68.448 168.295 68.6539 166.931C68.779 166.103 68.9041 165.274 69.0147 164.443L69.1359 163.498C69.1498 163.393 69.1643 163.286 69.179 163.178C69.4236 161.377 69.7143 159.236 68.3312 157.878C66.8782 156.45 64.5683 156.805 63.1514 158.074C61.7095 159.364 60.8416 161.39 60.1012 163.137C58.0221 168.053 57.5473 173.26 57.0711 178.483L57.0709 178.485L57.0707 178.486L57.0706 178.487C56.7996 181.46 56.5281 184.438 55.9598 187.37C55.8248 187.534 55.6914 187.697 55.5597 187.859L55.4787 187.959L55.3824 188.078C52.5032 189.702 49.9165 191.792 48.0558 194.553C45.0694 198.983 43.6525 204.143 45.1498 209.393C45.6052 210.992 46.2479 212.522 46.8908 214.053C47.3401 215.123 47.7895 216.192 48.1751 217.286C49.176 220.117 49.7889 223.058 50.0828 226.047C50.3712 228.98 50.41 231.93 50.3268 234.874C50.2824 236.399 50.202 237.921 50.1216 239.443C50.1052 239.753 50.0801 240.066 50.0548 240.38C49.9689 241.449 49.8818 242.534 50.134 243.567L50.1743 243.721C50.0468 243.701 49.9219 243.676 49.7972 243.649C49.5537 243.594 49.3169 243.533 49.0831 243.473C48.2889 243.268 47.53 243.072 46.6666 243.185C45.7959 243.299 45.3439 244.025 45.7127 244.846C45.8735 245.204 46.087 245.503 46.3449 245.758C45.0974 254.982 43.332 264.124 41.5667 273.267L41.5665 273.268L41.5664 273.269L41.5662 273.27C40.1536 280.586 38.7411 287.901 37.5937 295.258C36.4235 302.769 35.7109 310.301 36.113 317.906L36.1552 318.66C36.5651 325.641 37.5722 333.335 41.1208 339.441C42.779 342.3 45.0583 344.836 47.8201 346.663C49.0848 347.5 50.4405 348.155 51.9129 348.482C59.5439 351.52 67.613 350.774 74.8086 346.758C78.0446 344.952 81.2722 342.848 83.9147 340.237C85.1986 338.967 86.4378 337.351 87.1979 335.585C87.197 335.715 87.2041 335.846 87.2112 335.978C87.2182 336.106 87.2252 336.235 87.2247 336.363C87.2242 336.502 87.2148 336.64 87.1868 336.777L87.0267 337.55C86.8014 338.628 86.457 340.254 86.0459 342.194L86.0309 342.265L86.028 342.279C84.25 350.671 81.2492 364.836 81.2001 366.277C81.1711 367.124 87.4468 367.206 89.5394 367.234L89.5833 367.235L89.6657 367.236C89.7843 367.237 89.886 367.239 89.9683 367.24C90.0369 367.241 90.092 367.243 90.1321 367.244L90.1566 367.245C103.255 367.791 116.361 367.499 129.452 366.958L130.485 366.915C134.392 366.75 138.404 366.567 142.457 366.382C151.578 365.967 160.907 365.542 169.706 365.285L169.679 365.073C169.671 365.013 169.662 364.941 169.65 364.861C169.885 364.859 170.112 364.856 170.33 364.851C170.574 364.846 170.807 364.838 171.029 364.828C171.29 364.816 171.544 364.804 171.793 364.792C171.991 364.783 172.185 364.773 172.375 364.764C172.377 364.979 172.379 365.126 172.381 365.186C176.544 365.09 180.708 364.645 184.871 364.2C190.613 363.586 196.354 362.972 202.095 363.272C208.093 363.585 214.078 364.072 220.064 364.56C221.027 364.638 221.989 364.716 222.952 364.794C223.856 364.867 224.76 364.939 225.664 365.01L225.714 364.585C226.205 364.616 226.696 364.644 227.187 364.669C227.321 364.676 227.455 364.683 227.589 364.689C227.698 364.694 227.808 364.699 227.918 364.704L227.862 365.179C231.206 365.433 234.55 365.664 237.899 365.84L238.753 365.883C250.147 366.453 261.908 366.486 273.059 363.874C273.403 363.793 273.519 363.45 273.447 363.164C273.558 363.228 273.724 363.192 273.772 363.036C274.697 359.987 275.298 353.578 275.78 348.438C275.975 346.363 276.15 344.494 276.319 343.138L276.359 342.829C276.963 338.246 277.31 333.611 277.559 329C278.064 319.777 278.003 310.542 277.321 301.33C275.15 271.946 266.504 242.259 248.358 218.645C243.971 212.936 238.977 207.713 232.985 203.674C227.107 199.71 220.513 196.918 213.822 194.65C209.399 193.15 204.907 191.867 200.415 190.586C200.245 190.501 200.075 190.417 199.904 190.334L199.647 190.212C199.417 190.103 199.188 189.993 198.959 189.882C198.694 189.752 198.428 189.622 198.163 189.492C197.067 188.955 195.969 188.416 194.841 187.952L194.48 187.805C192.109 186.854 189.347 186.013 186.781 186.042C182.624 183.949 179.133 180.786 179.471 175.712C179.487 175.479 179.459 175.271 179.399 175.09C181.385 173.623 183.28 172.022 185.067 170.296C188.728 169.425 191.483 166.025 193.521 163.005C193.853 162.509 194.167 161.985 194.458 161.447C194.563 161.616 194.68 161.774 194.81 161.918L194.552 162.612C193.787 164.652 197.084 165.985 198.04 164.081C198.736 162.7 199.543 161.386 200.442 160.144C200.971 160.069 201.49 159.748 201.778 159.332C202.012 158.993 202.255 158.653 202.501 158.31L202.505 158.303C203.023 157.58 203.549 156.845 204.016 156.083C204.399 155.719 204.792 155.37 205.194 155.029L205.26 155.087C205.355 155.17 205.451 155.255 205.544 155.342C206.048 156.493 206.672 157.544 207.446 158.533L207.612 158.745C209.094 160.612 211.024 162.523 213.413 162.98C214.142 163.119 214.844 162.212 214.198 161.633C213.497 161.003 212.742 160.457 211.987 159.912C210.944 159.157 209.902 158.404 209.007 157.43C208.248 156.604 207.55 155.694 206.95 154.74L206.814 154.519C206.759 154.43 206.704 154.341 206.649 154.252C206.602 154.177 206.554 154.102 206.506 154.026C207.202 153.552 207.898 153.075 208.594 152.598C209.738 153.575 211.088 154.235 212.441 154.897C213.355 155.344 214.27 155.792 215.124 156.339L215.335 156.476C217.251 157.757 219.27 154.924 217.733 153.369C216.49 152.114 215.397 150.683 214.311 149.259C214.034 148.896 213.757 148.533 213.478 148.174C213.361 148.024 213.244 147.874 213.126 147.725C213.832 146.426 214.165 144.89 214.291 143.337C214.34 142.9 214.378 142.463 214.416 142.026L214.417 142.019C215.493 142.035 216.574 141.666 217.489 141.032L217.836 140.785C218.948 141.14 220.115 141.312 221.233 141.281C223.861 141.204 224.937 138.201 223.293 136.302C221.615 134.361 218.679 133.937 216.352 134.88C216.278 134.841 216.2 134.799 216.125 134.758C216.236 134.248 216.211 133.785 216.085 133.379L216.122 133.131C216.633 132.346 216.97 131.45 217.097 130.503C217.198 129.753 217.178 129.01 217.004 128.269C216.965 128.104 216.899 127.935 216.831 127.764C216.798 127.68 216.765 127.595 216.735 127.511C216.924 127.033 217.035 126.54 217.069 126.044C217.122 125.981 217.175 125.916 217.225 125.846C218.379 124.226 218.146 122.273 217.047 120.962C217.045 120.924 217.042 120.887 217.039 120.85C217.035 120.804 217.029 120.758 217.023 120.712C217.088 120.567 217.147 120.421 217.2 120.273C218.274 119.191 219.062 117.888 218.915 116.274C218.829 115.324 218.438 114.469 217.847 113.83C217.952 113.52 217.962 113.161 217.835 112.861C218.778 110.353 218.659 107.333 217.98 104.528C218.13 104.101 218.208 103.638 218.191 103.148C218.113 101.066 216.311 99.1526 214.176 99.1776C213.919 99.1798 213.678 99.2133 213.447 99.2624L213.444 99.2128C213.362 98.5879 213.19 98.0104 212.939 97.4923C213.062 97.4476 213.177 97.3836 213.277 97.2985C214.645 98.0281 216.093 98.5859 217.611 98.966C218.727 99.2455 219.87 97.9771 219.176 96.9298C218.854 96.4437 218.499 96.0074 218.116 95.6087C218.66 95.6118 219.213 95.6486 219.771 95.7205C220.775 95.8508 221.895 95.166 222.547 94.24C223.357 95.0274 224.169 95.812 224.982 96.5965C227.039 98.5898 230.148 97.1232 230.472 94.4951C231.085 94.3315 231.656 94.0543 232.158 93.6578C235.402 95.0662 238.893 95.8397 242.462 95.9866C245.024 96.0919 246.521 93.1089 245.324 91.0019C244.519 89.588 243.521 88.3183 242.37 87.2149C244.156 87.7611 246 88.1547 247.883 88.407C248.901 88.5429 250.34 87.7001 250.747 86.7658C252.306 83.1728 252.173 79.4274 250.379 75.9315C250.323 75.8204 250.262 75.713 250.202 75.6062L250.157 75.5267C249.971 75.0637 249.768 74.6063 249.549 74.1572C251.757 71.8562 251.948 68.4351 250.758 65.5712C251.235 64.7977 251.418 63.8662 251.094 63.0234C250.171 60.5977 248.84 58.3576 247.159 56.4336C247.32 56.1231 247.461 55.7932 247.581 55.4383C248.526 52.5689 247.431 49.1063 245.221 47.1074C243.832 45.8488 242.235 45.0947 240.529 44.6123C239.811 43.3426 238.888 42.1976 237.812 41.2329L237.811 41.2299C237.769 41.1394 237.728 41.0489 237.682 40.9584C236.007 37.8035 232.956 36.1123 229.687 35.7214C229.56 34.4877 228.728 33.3095 227.519 32.9269C227.186 31.8596 226.69 30.8393 226.008 29.9133C224.935 28.4551 223.152 27.7676 221.471 28.724C220.551 29.248 219.669 29.8496 218.843 30.515C218.471 30.341 218.051 30.2283 217.576 30.1925L217.456 30.1851L214.722 30.0465C213.997 29.7254 213.274 29.3944 212.55 29.0632C212.321 28.9586 212.092 28.8538 211.864 28.7495C211.672 28.6622 211.481 28.5751 211.289 28.4884C210.602 27.9201 209.833 27.446 208.996 27.0939C208.048 26.6975 207.077 26.4729 206.104 26.398C205.314 26.1402 204.518 25.9129 203.708 25.7354C201.806 25.3196 199.815 25.0867 197.841 25.1062C197.8 24.5952 197.78 24.0782 197.784 23.5551L197.788 23.293C197.832 21.6157 196.493 20.2767 194.915 20.0383ZM211.078 150.001L211.262 150.34L211.35 150.505C210.959 150.474 210.565 150.483 210.177 150.527L210.178 150.486L210.199 150.479C210.214 150.474 210.228 150.469 210.243 150.464C210.271 150.454 210.299 150.443 210.326 150.43C210.594 150.301 210.843 150.157 211.078 150.001ZM214.503 100.364C215.091 100.384 214.894 100.955 214.592 100.478C214.567 100.439 214.536 100.4 214.503 100.364ZM48.7382 197.578C49.0691 197.033 49.4346 196.507 49.8297 196C49.2527 197.008 48.7617 197.968 48.348 198.888C48.1557 199.049 47.9703 199.216 47.7924 199.391C48.0669 198.767 48.383 198.163 48.7382 197.578ZM47.7064 199.887C47.7802 199.884 47.8538 199.881 47.9273 199.877C47.1998 201.687 46.777 203.348 46.5856 204.924C46.5853 204.789 46.5873 204.653 46.5917 204.517C46.6444 202.903 46.9993 201.334 47.601 199.851C47.629 199.873 47.6646 199.89 47.7064 199.887ZM51.8796 243.721C51.8966 243.68 51.913 243.639 51.9288 243.598C52.015 243.373 52.0837 243.143 52.1387 242.908C52.1099 243.267 52.0782 243.631 52.0435 243.999L52.0106 243.995C51.9188 243.984 51.827 243.973 51.7354 243.962C51.7936 243.89 51.8436 243.809 51.8796 243.721Z" fill="#FF2D82"/>
<path fill-rule="evenodd" clip-rule="evenodd" d="M45.9637 185.78C48.8244 177.901 46.6755 167.927 52.5723 161.408C54.3164 160.348 55.2415 160.938 55.9594 162.786C56.3928 165.218 57.4082 173.591 53.7563 173.587C53.2968 178.817 53.5841 184.084 54.7088 189.216C57.4038 188.784 59.3687 190.169 61.3349 191.199C62.8009 191.967 64.2675 192.538 66.038 192.01C73.347 190.722 75.4301 198.396 75.5188 204.66C75.6261 207.716 75.9133 214.841 77.2598 217.806C83.3541 205.187 96.1532 199.442 108.349 196.606C110.26 196.077 111.892 195.354 113.118 194.12C123.393 190.063 118.457 176.774 123.184 169.136C130.583 160.056 139.469 157.444 150.664 159C160.458 160.083 167.116 170.03 166.512 179.42C166.331 181.336 167.482 183.351 168.158 185.322C174.919 193.411 185.439 197.03 194.487 201.917C224.667 216.664 235.125 227.934 246.853 259.314C252.34 271.121 258.906 282.579 261.086 295.582C263.649 310.905 263.657 326.59 262.765 342.064C264.43 342.264 262.618 354.159 261.157 358.279C260.656 359.692 259.457 360.71 257.963 360.686C254.957 362.147 247.9 368.033 244.756 367.838C234.598 367.212 224.724 368.18 214.937 367.68C204.35 367.139 193.864 365.164 183.231 365.42C164.688 365.867 177.964 366.967 158.78 367.838C146.669 368.396 102.486 361.783 90.4103 362.863C80.5876 364.929 76.1063 361.446 77.6048 351.186C78.1588 347.254 79.9279 338.508 74.1082 338.136C71.3553 338.456 69.0765 341.206 67.0137 342.813C48.7964 356.373 30.1857 346.609 28.7191 324.317C25.9581 305.62 22.0869 301.202 30.5023 282.531C57.1273 213.025 17.0136 222.468 44.0975 189.912C46.2124 191.753 45.6747 186.839 45.9637 185.78Z" fill="white"/>
<path fill-rule="evenodd" clip-rule="evenodd" d="M56.0817 160.888C54.6287 159.46 52.3189 159.815 50.9019 161.085C49.46 162.374 48.5921 164.4 47.8518 166.147C44.5298 174.001 45.3035 182.601 43.6231 190.818C40.548 192.479 37.772 194.647 35.8063 197.563C32.8199 201.993 31.403 207.153 32.9004 212.404C33.674 215.12 34.9883 217.638 35.9256 220.296C36.9266 223.127 37.5394 226.068 37.8333 229.057C38.1217 231.99 38.1605 234.94 38.0773 237.884C38.033 239.409 37.9526 240.931 37.8721 242.453C37.8 243.817 37.5582 245.24 37.8846 246.577L37.9248 246.731C37.7973 246.711 37.6725 246.686 37.5477 246.659C36.4771 246.42 35.5346 246.049 34.4171 246.196C33.5464 246.309 33.0945 247.036 33.4632 247.856C33.6241 248.214 33.8376 248.513 34.0955 248.768C31.8494 265.375 27.9258 281.715 25.3442 298.268C24.1741 305.779 23.4615 313.311 23.8635 320.916L23.9057 321.67C24.3157 328.652 25.3228 336.346 28.8714 342.451C30.5295 345.31 32.8088 347.846 35.5706 349.673C36.8354 350.51 38.191 351.165 39.6634 351.492C47.2944 354.53 55.3635 353.785 62.5592 349.768C65.7951 347.963 69.0228 345.858 71.6653 343.247C72.9492 341.977 74.1884 340.361 74.9484 338.595C74.9456 338.991 75.0173 339.397 74.9373 339.787L74.7773 340.56C73.5789 346.298 69.0113 367.507 68.9507 369.288C68.9177 370.248 77.005 370.225 77.8827 370.254L77.9071 370.255C91.0054 370.801 104.112 370.509 117.203 369.968L118.236 369.925C130.932 369.388 144.747 368.666 157.456 368.295L157.43 368.083C157.278 366.941 156.537 361.866 156.455 361.477L156.452 361.464C156.092 360.013 155.397 355.498 155.763 354.001C156.705 350.143 160.95 351.024 163.937 351.433L164.566 351.516C165.049 351.582 166.226 351.755 166.215 351.767C166.532 351.436 165.777 350.498 165.591 350.247L165.443 350.041C164.64 348.918 163.914 347.751 163.993 346.305C164.186 342.77 169.238 342.97 171.72 343.215C171.895 343.232 171.966 343.505 171.765 343.546L171.275 343.648C169.7 343.986 166.202 344.848 166.282 346.15C166.326 346.89 167.115 347.436 167.596 347.902C168.127 348.417 168.655 348.97 169.047 349.601C169.801 350.817 169.973 352.456 169.226 353.721C168.366 355.18 166.839 355.35 165.31 355.217L165.223 355.21C164.887 355.178 164.55 355.146 164.214 355.113L162.195 354.915C161.695 354.867 160.089 354.446 159.619 354.736C158.954 355.148 159.754 356.971 159.904 357.571L159.912 357.614C160.041 358.484 160.118 367.595 160.131 368.197C170.036 367.967 179.942 365.765 189.846 366.282C197.714 366.693 205.561 367.403 213.415 368.02L213.613 366.335C215.79 347.981 219.203 323.762 217.565 305.608C217.437 304.187 219.656 304.195 219.783 305.608C221.477 324.38 217.769 349.598 215.613 368.19C218.956 368.443 222.301 368.674 225.649 368.85L226.503 368.893C237.898 369.463 249.658 369.497 260.81 366.884C261.153 366.804 261.27 366.46 261.198 366.174C261.309 366.238 261.475 366.202 261.522 366.047C262.821 361.765 263.481 350.865 264.07 346.148L264.109 345.839C264.714 341.256 265.06 336.621 265.31 332.011C265.815 322.787 265.754 313.552 265.071 304.34C262.9 274.956 254.254 245.27 236.109 221.655C231.722 215.947 226.728 210.723 220.736 206.684C214.857 202.72 208.263 199.928 201.572 197.66C197.15 196.16 192.657 194.877 188.165 193.596C187.995 193.511 187.825 193.427 187.654 193.345L187.397 193.222C185.8 192.465 184.228 191.636 182.592 190.962L182.23 190.815C179.86 189.865 177.098 189.023 174.531 189.052C170.375 186.959 166.883 183.796 167.222 178.722C167.36 176.638 164.088 176.64 163.972 178.722C163.667 184.261 167.08 188.19 171.431 190.826L171.41 190.848L171.389 190.871C170.71 191.641 169.984 192.357 169.199 193.022C164.502 197.02 158.559 200.339 152.62 202.523C145.652 205.087 138.689 205.855 131.482 203.782C127.714 202.698 124.156 201.026 120.887 198.863C119.889 198.204 118.932 197.497 118.014 196.74C118.882 195.553 119.575 194.275 120.158 192.92C121.327 190.192 122.295 186.496 121.1 183.616C120.806 182.906 119.639 182.468 119.231 183.372C118.108 185.844 117.64 188.517 116.331 190.935C115.832 191.855 115.258 192.728 114.615 193.552C114.615 193.596 109.701 194.436 109.701 194.436C103.762 194.433 98.1686 196.715 92.914 199.565C89.8078 201.25 86.7554 203.042 83.7116 204.836L77.7629 208.345C77.3248 208.603 76.834 208.852 76.3432 209.119C76.9172 206.285 77.1972 203.396 77.0087 200.532C76.7231 196.213 75.0427 191.489 70.5922 189.95C68.4876 189.221 66.053 189.446 64.0094 190.255C63.0666 190.63 62.0406 191.126 61.1644 191.788C60.7399 189.881 58.9516 188.45 57.1548 187.819C56.5725 187.613 55.9763 187.483 55.3718 187.419C55.3896 187.113 55.3914 186.803 55.3871 186.485L55.3829 186.244C55.3552 184.83 55.3663 183.416 55.3968 182.005C55.4522 179.329 55.5798 176.71 55.8515 174.043C56.0784 171.835 56.4726 169.652 56.7653 167.453L56.8865 166.508C57.1334 164.646 57.5476 162.327 56.0817 160.888ZM234.751 341.419L235.247 341.125C236.871 340.167 238.543 339.284 240.511 339.727C242.385 340.149 243.714 341.671 244.412 343.385C244.742 344.195 244.914 345.011 245.042 345.874C245.113 346.357 245.162 346.844 245.246 347.325L245.275 347.474C245.313 347.665 245.372 347.932 245.426 348.164C245.937 347.939 246.452 347.582 246.87 347.37L247.208 347.2C248 346.806 248.824 346.431 249.687 346.249C251.556 345.854 253.63 346.425 254.699 348.099C255.613 349.531 255.594 351.219 255.244 352.824L255.219 352.935C255.068 353.601 254.284 356.268 253.144 355.879C252.035 355.501 251.887 354.027 251.803 353.045L251.796 352.951C251.759 352.211 251.905 350.655 251.067 350.374C250.019 350.023 248.003 351.627 247.09 352.046C245.458 352.795 243.666 353.016 242.338 351.558C241.147 350.252 241.047 348.339 240.738 346.681L240.659 346.264C240.495 345.422 240.179 344.076 239.247 344.11C238.485 344.139 237.649 344.928 237.021 345.302C236.328 345.716 235.609 346.06 234.857 346.354C233.102 347.04 231.15 347.259 229.283 347.057C228.202 346.94 227.497 346.423 227.115 345.406C226.986 345.108 226.887 344.8 226.819 344.481C226.212 342.204 229.524 340.579 230.746 342.616C232.154 342.562 233.466 342.183 234.751 341.419ZM30.918 326.193C31.9279 325.473 33.2994 325.628 34.202 326.439L34.2557 326.49C34.5059 326.731 35.07 327.36 35.4353 327.913L35.5497 327.824C35.568 327.81 35.5858 327.796 35.6029 327.782L35.6525 327.741C36.3989 327.11 37.1789 326.532 38.1395 326.274C40.6423 325.602 42.9169 327.277 44.0096 329.425C44.5279 330.444 44.7497 331.496 45.0082 332.595L45.0301 332.696C45.1344 333.208 45.2698 334.246 45.7189 334.5C45.8839 334.593 46.2582 334.409 46.6286 334.195C47.4735 333.708 48.2319 333.086 49.0599 332.573C51.0026 331.367 53.2101 330.869 55.3918 331.738C57.5516 332.598 59.0989 334.627 59.1352 336.992C59.1621 338.735 57.9947 341.776 55.7978 341.564C55.3577 341.521 54.7912 341.25 54.7199 340.743C54.5305 339.398 55.592 337.744 54.3747 336.633C53.1976 335.558 51.9781 336.462 50.9125 337.207L50.149 337.743C48.9088 338.604 47.6317 339.393 46.0616 339.487C44.0751 339.605 42.2411 338.509 41.2415 336.818C40.3378 335.29 40.3245 333.561 39.618 331.992C39.4635 331.649 39.0653 331.333 39.1979 331.175C38.6624 331.454 37.9717 332.257 37.6381 332.482C35.9771 333.603 33.7566 333.594 32.3006 332.109C31.7205 331.518 31.3511 330.788 30.9216 330.092C30.7663 329.84 30.5725 329.608 30.4308 329.349C30.3789 329.254 30.2937 328.9 30.2237 328.585L30.1161 328.084L30.1048 328.002C30.0127 327.244 30.2805 326.647 30.918 326.193ZM94.8927 319.575C96.8007 318.573 99.153 318.954 100.872 320.168C102.799 321.529 103.745 323.62 104.388 325.829C104.857 327.438 105.081 329.656 106.426 330.821C107.992 332.177 110.616 330.738 112.269 330.203C114.268 329.557 116.671 329.292 118.622 330.249C120.534 331.186 121.455 333.097 121.653 335.145C121.837 337.057 121.563 339.574 120.473 341.173C120.365 341.33 120.16 341.29 120.092 341.123C119.376 339.358 119.514 337.34 118.932 335.514C118.31 333.564 116.854 333.152 115.005 333.676C113.076 334.223 111.31 335.247 109.327 335.611C107.212 335.999 105.119 335.599 103.451 334.202C102.049 333.026 101.2 331.314 100.626 329.608C100.066 327.945 99.9751 325.719 98.7839 324.338C98.4833 323.989 97.9595 323.569 97.4731 323.524C96.7505 323.457 96.4893 323.994 95.9056 324.406C94.3658 325.492 91.9079 325.514 90.9652 323.603C90.6565 322.978 90.5035 322.089 90.9652 321.477C91.7746 320.404 92.4392 320.413 93.5074 320.645C93.5413 320.616 93.5793 320.579 93.6219 320.529L93.6546 320.49C93.9371 320.132 94.4859 319.789 94.8927 319.575ZM170.464 308.298C170.527 306.862 172.257 305.483 173.621 306.487C173.841 306.647 174.058 306.811 174.27 306.981L174.357 307.075C174.611 307.074 174.848 307.008 175.098 306.928L175.537 306.787C176.688 306.422 177.795 306.128 179.024 306.397C181.138 306.861 182.48 308.685 183.168 310.621C183.81 312.425 183.6 314.265 183.901 316.115C184.186 317.869 185.088 318.554 186.78 318.178L186.867 318.158C190.233 317.352 194.069 315.098 197.021 318.188C200.209 321.526 198.123 326.828 194.633 328.973C194.481 329.067 194.312 328.913 194.347 328.753C194.81 326.597 196.163 324.54 195.71 322.251C195.396 320.665 194.293 319.914 192.72 320.167C189.411 320.699 186.316 323.336 182.922 321.422C181.226 320.466 180.292 318.67 179.87 316.83C179.489 315.174 179.597 313.307 178.868 311.745C178.071 310.036 176.728 311.275 175.28 311.508C173.232 311.839 170.355 310.765 170.464 308.298ZM59.4441 257.222C59.4374 255.795 61.6557 255.793 61.6624 257.222C61.7442 275.304 70.2048 292.017 71.7247 309.919C71.845 311.341 69.6261 311.333 69.5063 309.919C67.986 292.012 59.5259 275.333 59.4441 257.222ZM242.621 286.82C243.789 285.498 245.5 285.908 246.89 286.571C248.977 287.566 250.975 288.684 252.89 289.977C253.361 290.295 253.064 290.986 252.509 290.88C251.105 290.61 249.738 290.307 248.375 289.869C247.351 289.541 246.285 289.063 245.218 288.894C245.284 289.139 245.366 289.38 245.461 289.616C245.637 290.101 245.84 290.575 246.013 291.061C246.357 292.029 246.666 293.011 246.966 293.994L247.116 294.486C247.74 296.546 248.346 299.545 245.466 300.179C244.397 300.414 243.338 299.949 242.344 299.583L242.139 299.509L238.513 298.224C238.081 298.071 237.28 297.964 236.922 297.695L236.979 297.971C237.054 298.336 237.127 298.694 237.284 299.058L237.372 299.259C238.272 301.301 239.408 303.344 238.357 305.601C237.457 307.534 235.33 308.452 233.279 307.903C231.331 307.382 229.921 305.188 230.93 303.28C231.306 302.568 232.405 302.22 233.104 302.665L233.292 302.79C233.512 302.933 233.891 303.18 233.9 303.225C233.952 303.239 234.007 303.253 234.063 303.266C233.945 302.92 233.866 302.388 233.762 302.153L233.383 301.291C232.677 299.672 232.065 298.025 232.604 296.209C234.146 291.009 239.377 293.966 243.236 295.449C243.18 295.23 243.124 295.013 243.077 294.8C242.911 294.047 242.729 293.298 242.549 292.549L242.179 291.002C241.847 289.577 241.588 287.99 242.621 286.82ZM45.1951 281.016C45.1917 280.893 45.3431 280.799 45.4493 280.871C47.9164 282.529 49.5668 285.991 48.6398 288.94C48.1898 290.373 47.2326 291.629 45.8888 292.324C44.2181 293.188 42.3733 292.859 40.618 292.489L39.8724 292.33C39.347 292.22 38.8284 292.139 38.2936 292.286C38.11 292.337 37.8971 292.497 37.7227 292.531C37.7948 292.654 37.8713 292.866 37.9101 292.945L38.0373 293.201C38.1649 293.46 38.2895 293.73 38.3677 294.002C38.63 294.916 38.5651 295.896 38.1403 296.749C37.3489 298.337 35.689 299.232 33.961 299.384C32.9314 299.475 30.3374 298.574 29.724 299.666C28.5067 301.833 25.0403 300.376 25.7141 297.976C26.1697 296.353 27.4622 295.305 29.0635 294.866C29.9167 294.632 30.7999 294.664 31.6675 294.759C32.0074 294.797 32.3462 294.849 32.6864 294.885L32.942 294.909C32.8754 294.904 33.6471 294.885 33.9571 294.865L33.891 294.687C33.8812 294.662 33.8723 294.64 33.8645 294.623C33.5195 293.885 33.2639 293.15 33.2847 292.326C33.3227 290.84 34.2849 289.543 35.549 288.828C36.7145 288.167 38.1023 287.904 39.4272 288.051C40.8835 288.213 42.9532 289.367 44.3854 288.759C45.4643 288.301 45.8306 286.704 45.8472 285.657C45.8722 284.081 45.2389 282.587 45.1951 281.016ZM145.678 270.678C149.648 268.897 153.056 271.938 155.385 274.849C155.505 274.999 155.354 275.252 155.165 275.135L154.855 274.942C152.954 273.75 150.845 272.341 148.488 272.747C146.355 273.115 145.826 274.51 146.251 276.412L146.376 276.947C146.827 278.906 147.173 280.933 146.049 282.755C144.988 284.475 142.917 285.227 140.978 285.273C138.742 285.326 136.811 284.285 134.766 283.56L134.604 283.503C133.736 283.204 130.567 282.42 130.523 284.204C130.503 285.02 131.376 285.978 131.712 286.711C132.151 287.67 132.444 288.678 132.439 289.743C132.426 292.399 130.209 294.557 127.586 293.268C126.567 292.767 126.304 291.329 126.836 290.406C127.584 289.104 127.888 289.171 127.363 287.804L127.211 287.419C126.566 285.772 126.051 284.076 126.777 282.347C128.226 278.893 132.571 278.475 135.675 279.618L135.789 279.661C137.721 280.41 143.508 283.408 143.109 279.168C142.952 277.498 142.445 275.896 142.799 274.207C143.129 272.639 144.223 271.33 145.678 270.678ZM164.804 256.495C165.528 255.219 167.961 255.675 167.759 257.295L167.695 257.799C167.612 258.489 167.594 259.137 168.071 259.75C168.649 260.495 169.639 260.72 170.538 260.606C172.441 260.365 173.654 258.601 175.748 259.013C177.448 259.348 178.622 260.738 179.302 262.254C180.021 263.86 180.006 265.601 180.542 267.254C181.159 269.156 182.475 269.068 184.119 268.403L184.473 268.258C186.046 267.604 187.623 266.878 189.375 267.19C192.286 267.709 194.792 272.183 192.065 274.343C191.573 274.733 190.713 274.529 190.734 273.792L190.736 273.652C190.75 272.31 190.412 270.579 188.873 270.262C187.242 269.927 185.399 271.415 183.884 271.844C179.961 272.953 177.726 270.001 177.059 266.509L177.035 266.375C176.822 265.153 176.654 262.892 175.376 262.319C174.694 262.014 173.967 262.765 173.397 263.068C172.511 263.537 171.561 263.835 170.56 263.912C166.855 264.194 162.645 260.298 164.804 256.495ZM72.0857 251.672C73.3066 251.143 75.1273 251.437 75.4256 253.03L75.6065 254.032C75.9613 255.969 76.5261 258.39 78.4298 259.087C79.6205 259.523 80.9878 258.759 82.0556 258.293C83.3381 257.732 84.5883 257.252 85.9928 257.119C88.8425 256.849 90.9652 258.497 91.9731 261.073L92.061 261.303C92.874 263.467 93.9727 267.607 92.1927 269.363C91.9329 269.619 91.4091 269.744 91.0902 269.505C90.0386 268.716 89.7724 267.42 89.4114 266.204L89.3802 266.1C88.997 264.837 88.6828 263.446 87.991 262.309C86.7049 260.194 83.3494 262.609 81.7353 263.166C79.0847 264.082 76.336 263.547 74.3104 261.588C73.031 260.351 72.2745 258.785 71.7543 257.127C71.4221 257.299 71.0775 257.447 70.7062 257.548C69.292 257.931 67.6144 257.729 66.5377 256.658C64.5168 254.647 65.6129 251.041 68.6942 251.624C69.3009 251.739 69.6991 252.319 69.7712 252.91L69.8125 253.004C70.5878 252.748 71.4354 251.953 72.0857 251.672ZM214.866 233.711C217.745 230.75 222.741 232.355 224.71 235.496C225.118 236.148 224.444 236.973 223.727 236.775C222.013 236.303 219.594 234.444 217.783 235.627C216.44 236.504 217.171 238.796 217.293 240.078L217.311 240.27C217.467 242.015 217.502 244.403 216.142 245.71C215.359 246.462 214.159 246.36 213.127 246.253L212.799 246.219C211.582 246.096 210.373 245.882 209.208 245.507C208.137 245.164 207.121 244.697 206.115 244.202L205.863 244.078C205.417 243.857 203.931 242.98 203.486 243.531C203.254 243.818 203.829 245.076 203.949 245.357C204.4 246.412 204.974 247.405 205.388 248.479C206.118 250.372 206.179 252.506 205.154 254.312C204.162 256.062 202.011 257.479 200.104 256.135C199.013 255.365 199.016 253.965 200.104 253.195C200.68 252.788 201.261 252.519 201.499 251.835C201.809 250.944 201.41 249.998 201.023 249.173L200.56 248.192C199.534 246 198.509 243.479 199.942 241.238C201.422 238.924 204.431 238.888 206.706 239.851C208.005 240.401 209.19 241.139 210.544 241.565C211.48 241.859 212.42 242.056 213.379 242.164C213.593 241.01 213.291 239.719 213.287 238.572C213.283 236.831 213.607 235.006 214.866 233.711ZM66.4162 192.52C71.2743 191.808 73.6257 196.152 73.9613 200.336C74.2635 204.134 73.6479 207.943 72.6857 211.636C72.3253 213.005 71.9204 214.358 71.4962 215.689C70.814 217.826 70.0737 219.961 69.1725 222.018C68.898 222.639 68.6207 223.263 68.3101 223.862C67.2463 224.734 66.3361 225.908 65.5086 227.037L64.9649 227.783L64.8191 227.984C63.4132 229.908 62.2125 231.904 61.2309 234.075C60.2961 236.142 59.6002 238.298 59.0593 240.498L58.9263 241.047C58.5103 242.74 57.8969 244.761 58.6383 246.337C57.1825 246.786 55.7351 247.194 54.1878 247.41C52.0527 247.709 49.8316 247.729 47.6771 247.651C45.5953 247.575 43.5159 247.412 41.4431 247.192L39.9498 247.027C39.795 247.01 39.6403 246.991 39.4859 246.972C39.5442 246.9 39.5941 246.819 39.6301 246.731C40.1622 245.455 40.0936 243.977 40.1526 242.605L40.1598 242.453C40.2374 240.931 40.2845 239.409 40.304 237.884C40.34 235.023 40.2624 232.154 39.949 229.306C39.6776 226.814 39.253 224.322 38.5903 221.902C37.922 219.448 36.9016 217.144 35.9588 214.788C35.0272 212.459 34.2588 210.067 34.3423 207.527C34.3949 205.913 34.7499 204.344 35.3516 202.861C35.3796 202.883 35.4151 202.9 35.4569 202.897C37.3453 202.828 39.1338 202.282 40.9584 201.821C42.8938 201.331 44.8764 200.929 46.8563 200.69L47.2771 200.641C48.9272 200.456 50.7248 200.366 52.2496 201.073C53.8994 201.841 54.9393 203.549 55.5659 205.187L55.6358 205.376C56.7492 208.482 56.4939 212.628 53.0509 214.097C51.9834 214.555 49.546 214.835 48.997 213.388C48.7502 212.728 49.2576 211.752 49.4489 211.129C49.6735 210.385 49.8205 209.653 49.8039 208.877C49.7904 208.196 49.2702 207.683 48.6083 207.628L48.5478 207.624C47.3443 207.572 44.8626 206.185 44.6214 208.181C44.5742 208.569 44.8709 208.977 45.1842 209.166C45.8165 209.54 46.4764 209.789 47.1641 209.942C47.0698 210.358 46.9367 210.765 46.8061 211.17C46.7287 211.131 46.6428 211.106 46.5513 211.098C45.5336 211.015 44.5271 211.176 43.5094 211.186L42.9532 211.19C42.1634 211.198 41.4747 211.241 40.7088 211.649C40.0017 212.026 40.1265 212.972 40.7088 213.377C42.2367 214.436 44.8238 213.815 46.4154 212.739C46.3461 213.285 46.3793 213.842 46.6123 214.427C47.3 216.163 49.2715 217.028 51.0348 217.103C52.6017 217.169 54.0991 216.676 55.3496 215.811C55.6048 216.723 56.0151 217.599 56.1926 218.545C56.4255 219.786 56.1482 221.239 56.5805 222.406C57.0134 223.582 58.6854 224.369 59.6532 223.216C61.0701 221.53 60.6292 218.86 59.3842 217.153C58.7215 216.249 57.518 215.212 56.2924 215.048C57.1437 214.247 57.8258 213.257 58.2556 212.165C58.2861 212.179 58.3222 212.182 58.361 212.171C62.3456 211.081 64.514 207.472 64.6471 203.682C64.9411 203.892 65.2458 204.081 65.565 204.25C66.3275 204.661 67.3064 204.3 67.542 203.449C67.7583 202.656 67.1289 201.678 66.2443 201.744C65.7397 201.785 65.2322 201.788 64.7303 201.705C64.661 201.694 64.5945 201.68 64.5251 201.666C64.4808 201.375 64.4225 201.084 64.3504 200.796C65.8561 200.968 67.4311 200.721 68.8869 200.399C70.1402 200.125 69.8491 198.132 68.5874 198.179L68.3847 198.187C66.7293 198.267 64.2855 198.534 62.8669 197.486C62.6174 197.125 62.3401 196.784 62.0406 196.463C62.0018 196.382 61.9685 196.296 61.938 196.208C61.1755 194.012 64.7885 192.759 66.4162 192.52ZM110.026 223.409C111.917 222.904 113.908 223.593 115.209 225.02C116.302 226.221 116.868 227.694 117.374 229.201L117.662 230.068C118.083 231.295 118.566 232.268 120.069 231.8C121.995 231.201 123.664 230.156 125.759 230.239C127.662 230.314 129.526 231.132 130.851 232.505C132.207 233.908 132.854 235.864 132.566 237.791L132.547 237.909C132.397 238.796 131.099 241.965 129.722 240.506C129.108 239.856 129.229 239.136 129.083 238.309C128.945 237.522 128.648 236.75 128.162 236.111C127.3 234.98 125.914 234.539 124.559 234.939C122.772 235.467 121.193 236.556 119.267 236.581C117.242 236.609 115.522 235.558 114.405 233.91C113.503 232.579 113.181 231.021 112.547 229.574L112.485 229.436C111.953 228.245 111.589 227.815 110.369 228.384L109.942 228.589C108.115 229.457 106.059 230.252 104.169 229.028C102.414 227.891 101.665 225.606 103.142 223.942C103.957 223.024 105.843 223.18 106.372 224.358C106.465 224.561 106.551 224.766 106.636 224.972C106.798 224.923 106.955 224.863 107.104 224.779C108.094 224.333 108.955 223.696 110.026 223.409ZM165.239 209.958C167.397 208.796 169.198 211.082 168.853 213.146L168.837 213.237C168.824 213.299 168.795 213.435 168.759 213.591C168.869 213.578 168.978 213.558 169.086 213.53L169.588 213.469C170.375 213.378 171.139 213.33 171.928 213.583C173.789 214.18 174.705 215.989 174.75 217.843C174.794 219.69 173.838 221.18 173.557 222.945C173.27 224.75 175.138 224.235 176.358 224.103L176.406 224.098C178.103 223.926 179.887 223.923 181.298 225.029C182.754 226.171 183.399 228.144 183.194 229.951C183.008 231.583 181.987 234.094 180.137 234.352C179.954 234.378 179.746 234.337 179.652 234.155C178.904 232.701 179.945 231.095 179.827 229.56C179.698 227.873 178.622 227.592 177.138 227.701C175.698 227.807 174.262 228.112 172.839 227.683C171.297 227.217 170.177 225.893 169.86 224.332C169.511 222.611 170.153 221.01 170.569 219.375C170.707 218.831 170.775 218.285 170.68 217.73C170.659 217.61 170.555 217.499 170.517 217.451C170.281 217.407 169.926 217.52 169.723 217.542L169.436 217.57C167.873 217.712 166.368 217.617 165.252 216.326C164.679 215.665 164.468 214.856 164.525 214.003L164.554 213.659C164.584 213.327 164.643 212.89 164.815 212.708L164.817 212.699C164.76 212.621 164.705 212.541 164.655 212.459L164.606 212.375C164.127 211.577 164.405 210.408 165.239 209.958ZM54.7088 189.723C56.8578 189.723 58.8878 190.424 60.5128 192.335C59.9332 192.886 59.4702 193.527 59.2148 194.278C58.4192 193.843 57.5763 193.502 56.7139 193.261C54.0824 192.526 50.4832 192.537 48.2705 194.342C47.1114 195.284 48.3842 196.975 49.632 196.684C50.7494 196.424 51.7199 195.941 52.8929 195.886C53.9105 195.836 54.9088 195.969 55.8848 196.263C57.3739 196.712 58.727 197.563 59.7225 198.736C60.0552 199.13 60.3464 199.556 60.5904 200.017C62.4482 203.543 61.0479 208.6 58.483 211.503C59.4896 208.159 58.4858 204.217 56.481 201.448C54.0674 198.113 50.4574 197.735 46.6543 198.255L46.5288 198.273C42.8495 198.792 38.2936 199.698 35.5429 202.401C35.8174 201.777 36.1335 201.173 36.4887 200.588C38.5737 197.156 42.0315 194.478 45.6196 192.567C46.2213 192.243 46.8286 191.944 47.433 191.666C49.7318 190.61 52.2939 189.723 54.7088 189.723ZM53.5334 163.53L53.5418 163.569C53.5436 163.576 53.5454 163.584 53.5473 163.591C53.6743 164.718 53.3744 166.012 53.2214 167.15L53.2007 167.311C52.879 169.901 52.4548 172.493 52.3161 175.102C52.1811 177.61 52.2331 180.213 52.5347 182.71L52.5795 183.067C52.757 184.428 52.8624 186.025 53.3224 187.422C51.5536 187.591 49.7845 188.159 48.1762 188.764C47.5994 188.983 47.0254 189.213 46.4542 189.457C47.1696 185.656 47.5523 181.8 48.3287 178.01L48.4815 177.256C49.3255 173.063 50.1178 168.844 52.2995 165.094C52.5906 164.594 52.904 164.176 53.2589 163.73C53.3365 163.627 53.428 163.561 53.5334 163.53Z" fill="#111111"/>
<path fill-rule="evenodd" clip-rule="evenodd" d="M101.626 117.48C102.285 108.957 101.264 100.023 104.551 91.9217C110.282 78.48 126.352 73.9983 138.811 68.8808C143.803 67.4063 160.597 67.2002 166.442 65.2486C179.668 60.8318 182.829 55.5692 193.338 63.979C195.113 65.4157 196.223 66.977 197.032 69.1104L196.999 69.1195C197.23 70.0089 196.982 70.8963 196.461 71.5741C201.018 76.2311 202.925 83.213 200.587 89.4122C192.957 105.544 193.316 114.267 195.774 131.609C198.985 147.8 191.648 153.714 179.499 162.524C179.993 163.483 180.096 164.757 179.451 165.603C165.402 185.342 138.911 194.766 116.215 184.748C107.002 180.648 102.889 170.838 100.541 161.987C97.8069 152.076 96.9668 141.633 99.1928 131.537C100.091 126.868 101.26 122.233 101.626 117.48Z" fill="white"/>
<path fill-rule="evenodd" clip-rule="evenodd" d="M182.666 23.0485C180.96 22.7925 179.673 23.8504 179.06 25.3414L179.028 25.4217C178.831 25.929 178.612 26.4225 178.376 26.9076C174.109 24.8145 168.019 25.3523 165.319 29.5913C163.391 32.6187 164.567 36.2116 165.294 39.422L165.771 41.5373C164.849 42.1238 164.153 43.1742 164.186 44.2619L164.19 44.3457L164.384 47.2954C163.769 46.6717 163.206 45.9924 162.704 45.2688C162.357 44.634 161.983 44.0102 161.581 43.4058C159.215 39.8489 153.905 42.9401 155.858 46.7493C156.232 47.4839 156.653 48.1798 157.105 48.8507C157.616 49.8404 158.034 50.8579 158.356 51.9031C157.433 52.3051 156.723 53.1977 156.648 54.5451C156.473 57.6917 158.126 60.3171 160.754 61.9667C161.528 62.4518 162.327 62.5461 163.05 62.3659C163.178 62.5378 163.306 62.7097 163.428 62.8843C162.379 63.7354 161.434 64.7057 160.621 65.7814C158.176 65.4155 155.716 65.2436 153.257 65.238C150.251 63.7659 146.652 63.7964 143.421 64.3481C141.341 64.703 139.345 65.3933 137.299 65.8895C135.141 66.4107 132.951 66.4301 130.768 66.785C128.018 67.2313 125.605 68.5011 124.089 70.5277C122.422 70.5776 120.67 71.2596 119.217 72.1855C115.834 74.3424 112.47 76.5298 109.096 78.7005C107.8 79.5339 107.316 80.8643 107.554 82.3483L107.57 82.4432L107.684 83.0586L107.417 83.4375C106.384 84.8956 105.261 86.4228 104.592 88.0322C103.356 89.8148 102.238 91.6834 101.248 93.6102C99.9145 96.1995 98.8137 98.9442 98.0678 101.761C97.882 102.473 97.6962 103.191 97.5742 103.918C97.3995 104.944 97.6685 105.739 97.8154 106.723C97.9985 107.971 98.065 109.235 98.2591 110.485C98.3894 111.314 99.0938 111.722 99.8313 111.744C99.5541 113.854 99.3544 115.977 99.1631 118.084C98.8941 121.095 98.7111 124.114 98.553 127.133C97.7378 128.317 96.0713 129.254 94.8679 129.579C93.2014 130.025 91.4545 129.54 89.8795 128.971C88.8895 128.614 88.0771 129.859 88.5596 130.69C90.0763 133.302 93.3206 133.291 95.7774 132.135C96.8172 131.647 97.7295 130.94 98.4061 130.019C98.3645 130.895 98.3201 131.771 98.2758 132.65L98.2344 133.446C97.7349 142.743 96.6564 152.358 98.4033 161.563C101.429 177.507 114.625 189.647 130.746 190.589C139.206 191.084 146.25 188.586 149.754 187.192C153.257 185.799 151.895 182.957 149.463 183.77C145.274 185.169 137.578 187.253 130.691 186.353C114.458 184.232 100.694 176.12 102.108 141.184C102.308 136.229 102.926 131.272 103.059 126.318C103.187 121.475 103.139 116.629 103.353 111.788L103.424 110.137C103.507 108.207 103.597 106.268 103.741 104.336C103.916 103.588 104.06 102.828 104.274 102.094C104.853 100.095 105.61 98.1513 106.55 96.2966C106.758 96.4546 106.991 96.5683 107.243 96.6126C109.159 96.9564 110.956 96.8594 112.75 96.0609C113.588 95.6922 114.325 95.2015 115.013 94.5944C115.34 94.3088 115.559 94.0316 115.731 93.7432C116.599 93.7571 117.467 93.4965 118.01 92.8727C118.63 92.1618 118.733 91.4274 118.491 90.7476L118.465 90.6798L118.526 90.6576C119.258 92.5511 120.717 94.2173 122.317 95.3429C124.846 97.1283 128.009 97.6439 131.043 97.6911C134.393 97.741 137.925 97.2253 141.231 96.6986C142.104 96.56 142.972 96.4019 143.823 96.1885C143.856 96.2217 143.89 96.2605 143.926 96.2938C146.762 99.0079 150.753 99.7066 154.352 98.1568C156.432 97.2614 158.176 95.8197 159.717 94.1674C159.74 95.0324 159.784 95.8974 159.859 96.754L159.89 97.0942C160.043 98.6897 160.339 100.382 161.545 101.534C163.494 103.399 166.322 102.651 168.571 101.437C168.568 101.495 168.568 101.556 168.568 101.617C167.961 103.679 167.351 105.745 166.741 107.81L166.61 108.25C166.166 109.717 165.68 111.185 165.546 112.72C165.291 115.653 167.243 118.55 170.504 117.566C172.214 117.052 173.585 115.614 174.9 114.462L175.728 113.746C173.585 120.751 172.098 128.007 171.96 135.317C171.951 135.714 172.292 136.013 172.67 136.027C173.551 136.063 174.5 135.888 175.387 135.536C175.437 135.534 175.487 135.531 175.539 135.522C177.053 135.303 178.459 134.757 179.699 133.951C179.413 134.857 179.286 135.83 179.361 136.848C179.38 137.094 179.765 137.18 179.821 136.909C180.536 133.391 184.654 130.732 188.203 131.406C192.013 132.129 194.819 135.406 195.507 139.135C196.245 143.141 194.833 147.773 192.218 150.865C191.015 152.29 189.432 153.479 187.552 153.778C186.692 153.914 185.799 153.867 184.965 153.623C184.61 153.518 184.277 153.371 183.939 153.232C183.445 153.033 182.868 153.002 182.402 152.791C181.346 152.317 180.284 153.29 180.819 154.374C181.285 155.32 181.704 155.957 182.477 156.445C181.851 157.21 181.282 158.275 181.071 158.561C179.996 160.013 178.903 161.386 177.677 162.714C176.43 164.061 175.068 165.292 173.629 166.431L173.024 166.909C171.638 168.008 170.431 169.027 169.453 170.604C168.682 171.848 169.68 173.537 171.125 173.517C175.645 173.454 178.931 169.484 181.271 166.015C181.604 165.519 181.917 164.995 182.208 164.457C182.314 164.626 182.43 164.785 182.56 164.929L182.303 165.622C181.537 167.662 184.834 168.996 185.791 167.091C186.487 165.71 187.294 164.396 188.192 163.154C188.722 163.08 189.24 162.758 189.529 162.342C190.258 161.286 191.076 160.218 191.766 159.093C192.149 158.73 192.543 158.38 192.945 158.039C193.061 158.142 193.181 158.245 193.294 158.353C193.799 159.503 194.423 160.554 195.196 161.544L195.362 161.755C196.844 163.622 198.775 165.534 201.164 165.99C201.893 166.129 202.595 165.223 201.948 164.643C200.276 163.141 198.299 162.118 196.758 160.44C195.998 159.614 195.301 158.704 194.701 157.75L194.564 157.529C194.464 157.366 194.362 157.202 194.256 157.036C194.952 156.562 195.648 156.085 196.344 155.608C198.26 157.245 200.756 157.993 202.875 159.349L203.085 159.487C205.001 160.767 207.02 157.934 205.484 156.379C203.79 154.671 202.377 152.634 200.877 150.735C201.582 149.436 201.916 147.9 202.041 146.348C202.09 145.908 202.129 145.468 202.168 145.029C203.243 145.045 204.325 144.677 205.24 144.042L205.586 143.795C206.698 144.15 207.866 144.322 208.983 144.291C211.612 144.214 212.688 141.211 211.044 139.312C209.366 137.372 206.429 136.947 204.103 137.89C204.028 137.851 203.95 137.81 203.876 137.768C203.987 137.258 203.962 136.795 203.836 136.389L203.872 136.141C204.384 135.356 204.72 134.46 204.848 133.513C204.949 132.763 204.928 132.02 204.755 131.28C204.697 131.033 204.577 130.778 204.485 130.521C204.674 130.043 204.785 129.55 204.82 129.054C204.873 128.991 204.925 128.926 204.975 128.856C206.13 127.236 205.897 125.283 204.798 123.972C204.793 123.889 204.785 123.805 204.774 123.722C204.838 123.578 204.897 123.431 204.951 123.284C206.024 122.201 206.812 120.898 206.665 119.284C206.579 118.334 206.189 117.479 205.598 116.84C205.703 116.53 205.713 116.171 205.586 115.872C206.529 113.364 206.409 110.343 205.731 107.538C205.88 107.111 205.958 106.648 205.941 106.158C205.864 104.076 204.061 102.163 201.926 102.188C201.669 102.19 201.429 102.224 201.197 102.273L201.194 102.223C201.112 101.598 200.941 101.021 200.69 100.502C200.813 100.458 200.927 100.394 201.027 100.309C202.395 101.038 203.843 101.596 205.361 101.976C206.477 102.256 207.62 100.987 206.927 99.94C206.605 99.454 206.249 99.0176 205.867 98.619C206.411 98.622 206.963 98.6589 207.522 98.7307C208.526 98.861 209.646 98.1762 210.298 97.2503C211.107 98.0376 211.92 98.8222 212.732 99.6068C214.79 101.6 217.898 100.133 218.223 97.5053C218.835 97.3418 219.407 97.0645 219.908 96.6681C223.153 98.0764 226.644 98.8499 230.213 98.9968C232.775 99.1022 234.272 96.1191 233.074 94.0122C232.27 92.5983 231.272 91.3285 230.121 90.2252C231.907 90.7713 233.751 91.165 235.634 91.4173C236.651 91.5531 238.09 90.7103 238.498 89.776C240.056 86.1831 239.923 82.4376 238.129 78.9417C238.06 78.8031 237.982 78.67 237.907 78.537C237.721 78.074 237.519 77.6165 237.3 77.1674C239.507 74.8664 239.699 71.4453 238.509 68.5815C238.986 67.808 239.169 66.8765 238.845 66.0337C237.921 63.6079 236.59 61.3678 234.91 59.4438C235.071 59.1333 235.212 58.8034 235.331 58.4486C236.277 55.5792 235.182 52.1165 232.972 50.1177C231.582 48.859 229.985 48.105 228.28 47.6226C227.562 46.3528 226.638 45.2079 225.562 44.2431C225.521 44.1516 225.479 44.0601 225.432 43.9686C223.757 40.8137 220.707 39.1226 217.438 38.7317C217.31 37.498 216.478 36.3197 215.269 35.9371C214.937 34.8698 214.44 33.8496 213.758 32.9236C212.685 31.4654 210.902 30.7778 209.222 31.7343C208.301 32.2583 207.419 32.8598 206.593 33.5252C206.222 33.3512 205.801 33.2386 205.326 33.2027L205.207 33.1953L202.473 33.0567C201.327 32.5493 200.185 32.0171 199.04 31.4986C198.352 30.9303 197.584 30.4562 196.747 30.1041C195.798 29.7077 194.828 29.4831 193.854 29.4083C193.064 29.1505 192.268 28.9231 191.459 28.7457C189.556 28.3298 187.565 28.097 185.591 28.1164C185.551 27.6055 185.531 27.0885 185.535 26.5653L185.539 26.3033C185.583 24.626 184.244 23.287 182.666 23.0485ZM184.582 157.244C184.854 157.302 185.128 157.349 185.403 157.382C185.319 157.588 185.236 157.793 185.156 157.998C184.934 158.123 184.709 158.242 184.485 158.353C184.551 157.976 184.59 157.596 184.582 157.244ZM198.828 153.011L199.012 153.351C199.042 153.406 199.072 153.461 199.101 153.515C198.71 153.484 198.316 153.493 197.928 153.537L197.929 153.496C197.979 153.479 198.029 153.463 198.076 153.44C198.344 153.311 198.593 153.167 198.828 153.011ZM191.129 137.527C188.675 137.67 186.597 138.046 184.366 139.119L184.174 139.212C182.203 140.191 178.942 141.999 179.216 144.591C179.294 145.328 179.829 146.104 180.672 146.046C182.982 145.888 184.302 143.559 185.866 142.107C187.443 140.643 189.382 139.138 191.292 138.131C191.562 137.99 191.456 137.541 191.162 137.527L191.129 137.527ZM202.253 103.374C202.841 103.394 202.644 103.965 202.342 103.488C202.317 103.449 202.287 103.41 202.253 103.374ZM170.522 65.2486C176.089 65.3949 181.692 68.6816 185.863 72.0037C189.491 74.8938 192.624 78.3315 195.399 82.0368C196.112 83.882 196.725 85.7658 197.243 87.6635C197.584 88.9166 197.797 90.1836 198.083 91.4477L198.172 91.8353C198.396 92.2545 198.563 92.7056 198.684 93.1716C198.179 93.6784 197.523 94.0413 196.801 94.2134C196.568 94.2689 196.375 94.3889 196.222 94.5481C195.641 93.5783 195.133 92.5547 194.837 91.4697L194.827 91.4195C193.709 89.59 192.496 87.8174 191.195 86.1054C187.607 81.3786 183.656 77.0704 178.906 73.4857C175.304 70.7688 171.278 68.6397 166.996 67.2563C168.044 66.411 169.234 65.7423 170.522 65.2486Z" fill="#111111"/>
<path fill-rule="evenodd" clip-rule="evenodd" d="M111.432 153.54C111.365 153.33 111.073 153.331 111.006 153.54C110.396 155.44 110.038 157.3 109.128 159.086C108.903 159.317 108.742 159.609 108.656 159.923C108.231 160.629 107.757 161.3 107.227 161.934C106.561 162.733 106.076 163.483 106.429 164.572C106.603 165.109 107.053 165.453 107.62 165.479C109.176 165.549 110.062 164.065 110.613 162.518C114.464 163.797 118.704 164.521 122.74 164.203C126.021 163.944 129.595 163.122 132.533 161.447C132.515 162.08 132.491 162.713 132.469 163.347C132.428 164.518 132.113 165.8 132.235 166.951C132.355 168.092 133.004 168.976 134.179 169.153C135.19 169.305 136.442 168.629 136.639 167.547C136.867 166.29 136.444 165.412 136.096 164.225C135.789 163.177 135.547 162.105 135.282 161.045C135.015 159.975 134.796 158.896 134.598 157.812C134.453 157.018 134.557 156.124 134.276 155.376C134.254 155.318 134.197 155.276 134.132 155.294C132.636 155.724 132.551 158.132 132.558 159.424L132.558 159.488C132.56 159.751 132.558 160.015 132.555 160.278L131.983 160.403C128.845 161.082 125.797 161.597 122.498 161.41C118.627 161.191 115.224 159.776 111.551 158.807C111.856 157.063 111.95 155.16 111.432 153.54ZM124.375 119.172C122.657 118.584 120.801 118.306 118.994 118.395C115.123 118.586 111.435 120.352 108.896 123.294C106.5 126.071 105.197 129.554 105.214 133.228C105.233 137.003 106.224 141.253 108.091 144.557C112.015 151.499 121.179 151.548 127.764 148.78C134.792 145.826 137.652 138.377 135.959 131.175C134.686 125.759 130.344 119.261 124.375 119.172ZM112.925 124.534C114.999 122.869 117.61 122.122 120.248 122.311C121.559 122.405 122.891 122.749 124.081 123.308C124.713 123.605 125.279 124.02 125.901 124.33C126.457 124.605 127.058 124.766 127.631 124.998L127.844 125.088C128.785 125.509 129.732 124.907 129.78 124.031C131.826 126.902 132.797 130.795 132.782 134.249C132.77 136.792 132.164 139.435 130.704 141.552C129.081 143.905 126.388 145.147 123.687 145.806C121.1 146.437 118.28 146.656 115.687 145.939C112.996 145.195 111.258 143.153 110.269 140.608C108.123 135.087 107.945 128.531 112.925 124.534ZM122.166 131.38C120.992 129.777 118.885 129.692 117.726 131.38C116.996 132.442 117.103 133.466 117.161 134.689L117.172 134.963C117.207 135.931 117.202 136.95 117.565 137.844C118.03 138.992 118.935 139.728 120.217 139.575C120.971 139.485 121.603 139.035 121.97 138.414L121.982 138.421C122.496 137.395 122.629 136.354 122.716 135.234L122.776 134.413C122.848 133.333 122.852 132.316 122.166 131.38Z" fill="#111111"/>
</svg>
