<svg width="37" height="37" viewBox="0 0 37 37" fill="none" xmlns="http://www.w3.org/2000/svg">
<path fill-rule="evenodd" clip-rule="evenodd" d="M18.5 37C28.7173 37 37 28.7173 37 18.5C37 8.28273 28.7173 0 18.5 0C8.28273 0 0 8.28273 0 18.5C0 28.7173 8.28273 37 18.5 37ZM18.2861 5.70513C17.9408 5.74671 17.6053 5.88941 17.3276 6.13322C17.2951 6.16171 17.2637 6.19133 17.2335 6.222L9.05947 14.396C8.36479 15.0907 8.36479 16.217 9.05947 16.9117C9.75416 17.6064 10.8805 17.6064 11.5751 16.9117L16.7212 11.7657V29.8846C16.7212 30.8671 17.5176 31.6635 18.5 31.6635C19.4824 31.6635 20.2788 30.8671 20.2788 29.8846V11.7721L25.4235 16.9277C26.1175 17.6231 27.2438 17.6243 27.9392 16.9304C28.6346 16.2364 28.6358 15.1101 27.9419 14.4147L19.7623 6.2178L19.7578 6.21332C19.4377 5.89321 19.026 5.7206 18.607 5.69551C18.5005 5.68907 18.3931 5.69219 18.2861 5.70513Z" fill="#FF2D82"/>
</svg>
